<?xml version="1.0" encoding="UTF-8" standalone="no"?><!-- Generator: Gravit.io --><svg xmlns="http://www.w3.org/2000/svg" xmlns:xlink="http://www.w3.org/1999/xlink" style="isolation:isolate" viewBox="0 0 194 107" width="194pt" height="107pt"><defs><clipPath id="_clipPath_STqqpkqHraaxzxaHscCVSWdtk0zpLZtj"><rect width="194" height="107"/></clipPath></defs><g clip-path="url(#_clipPath_STqqpkqHraaxzxaHscCVSWdtk0zpLZtj)"><clipPath id="_clipPath_lbaVMfMuqeAwrKAfPH9qNYmd0Yuj32sT"><rect x="0" y="0" width="194" height="107" transform="matrix(1,0,0,1,0,0)" fill="rgb(255,255,255)"/></clipPath><g clip-path="url(#_clipPath_lbaVMfMuqeAwrKAfPH9qNYmd0Yuj32sT)"><g><rect x="0" y="0" width="194" height="107" transform="matrix(1,0,0,1,0,0)" fill="none"/><path d=" M 15.036 2.963 C 18.739 -0.988 25.011 -0.988 28.714 2.963 L 41.214 16.296 C 42.843 18.034 43.75 20.327 43.75 22.709 L 43.75 43.987 C 43.75 49.164 39.552 53.362 34.375 53.362 L 9.375 53.362 C 4.198 53.362 0 49.164 0 43.987 L 0 22.709 C 0 20.327 0.907 18.034 2.536 16.296 L 15.036 2.963 L 15.036 2.963 L 15.036 2.963 Z " fill="rgb(139,139,139)"/><path d=" M 72.464 50.399 C 68.761 54.349 62.489 54.349 58.786 50.399 L 46.286 37.065 C 44.657 35.328 43.75 33.035 43.75 30.653 L 43.75 9.375 C 43.75 4.198 47.948 0 53.125 0 L 78.125 0 C 83.302 0 87.5 4.198 87.5 9.375 L 87.5 30.653 C 87.5 33.035 86.593 35.328 84.964 37.065 L 72.464 50.399 L 72.464 50.399 L 72.464 50.399 Z " fill="rgb(139,139,139)"/><path d=" M 137.899 15.036 C 141.849 18.739 141.849 25.011 137.899 28.714 L 124.566 41.214 C 122.827 42.843 120.535 43.75 118.153 43.75 L 96.875 43.75 C 91.698 43.75 87.5 39.552 87.5 34.375 L 87.5 9.375 C 87.5 4.198 91.698 0 96.875 0 L 118.153 0 C 120.535 0 122.827 0.906 124.566 2.536 L 137.899 15.036 L 137.899 15.036 L 137.899 15.036 Z " fill="rgb(139,139,139)"/><path d=" M 143.601 28.714 C 139.651 25.011 139.651 18.739 143.601 15.036 L 156.934 2.536 C 158.672 0.906 160.965 0 163.347 0 L 184.625 0 C 189.802 0 194 4.198 194 9.375 L 194 34.375 C 194 39.552 189.802 43.75 184.625 43.75 L 163.347 43.75 C 160.965 43.75 158.672 42.843 156.934 41.214 L 143.601 28.714 L 143.601 28.714 L 143.601 28.714 Z " fill="rgb(139,139,139)"/><path d=" M 15.036 56.325 C 18.739 52.374 25.011 52.374 28.714 56.325 L 41.214 69.658 C 42.843 71.396 43.75 73.688 43.75 76.07 L 43.75 97.348 C 43.75 102.526 39.552 106.723 34.375 106.723 L 9.375 106.723 C 4.198 106.723 0 102.526 0 97.348 L 0 76.07 C 0 73.688 0.907 71.396 2.536 69.658 L 15.036 56.325 L 15.036 56.325 Z " fill="rgb(23,23,23)"/><path d=" M 72.464 103.76 C 68.761 107.711 62.489 107.711 58.786 103.76 L 46.286 90.427 C 44.657 88.689 43.75 86.397 43.75 84.015 L 43.75 62.737 C 43.75 57.559 47.948 53.362 53.125 53.362 L 78.125 53.362 C 83.302 53.362 87.5 57.559 87.5 62.737 L 87.5 84.015 C 87.5 86.397 86.593 88.689 84.964 90.427 L 72.464 103.76 L 72.464 103.76 Z " fill="rgb(23,23,23)"/><path d=" M 137.899 68.397 C 141.849 72.101 141.849 78.372 137.899 82.076 L 124.566 94.576 C 122.827 96.205 120.535 97.112 118.153 97.112 L 96.875 97.112 C 91.698 97.112 87.5 92.914 87.5 87.737 L 87.5 62.737 C 87.5 57.559 91.698 53.362 96.875 53.362 L 118.153 53.362 C 120.535 53.362 122.827 54.268 124.566 55.897 L 137.899 68.397 L 137.899 68.397 Z " fill="rgb(23,23,23)"/><path d=" M 143.601 82.076 C 139.651 78.372 139.651 72.101 143.601 68.397 L 156.934 55.897 C 158.673 54.268 160.965 53.362 163.347 53.362 L 184.625 53.362 C 189.802 53.362 194 57.559 194 62.737 L 194 87.737 C 194 92.914 189.802 97.112 184.625 97.112 L 163.347 97.112 C 160.965 97.112 158.673 96.205 156.934 94.576 L 143.601 82.076 L 143.601 82.076 Z " fill="rgb(23,23,23)"/></g></g></g></svg>