<?xml version="1.0" encoding="UTF-8" standalone="no"?><!-- Generator: Gravit.io --><svg xmlns="http://www.w3.org/2000/svg" xmlns:xlink="http://www.w3.org/1999/xlink" style="isolation:isolate" viewBox="0 0 281 163" width="281pt" height="163pt"><defs><clipPath id="_clipPath_dh4PDNqvACquFzm55oNuGcBy0plTap6C"><rect width="281" height="163"/></clipPath></defs><g clip-path="url(#_clipPath_dh4PDNqvACquFzm55oNuGcBy0plTap6C)"><clipPath id="_clipPath_LagVQKY757FXtXvi4oCX2sRrlBCoFCU7"><rect x="0" y="0" width="281" height="163" transform="matrix(1,0,0,1,0,0)" fill="rgb(255,255,255)"/></clipPath><g clip-path="url(#_clipPath_LagVQKY757FXtXvi4oCX2sRrlBCoFCU7)"><g><rect x="0" y="0" width="281" height="163" transform="matrix(1,0,0,1,0,0)" fill="none"/><path d=" M 33.772 9.517 C 61.428 3.311 116.32 0.25 146.707 0.25 C 178.428 0.25 220.515 2.098 253.574 9.517 C 267.637 12.673 275.164 17.911 278.625 24.605 C 281.997 31.127 281.018 38.243 280.254 43.642 C 277.217 65.11 272.968 90.855 268.121 120.219 L 268.107 120.306 C 265.576 135.643 259.182 146.332 250.762 153.168 C 242.374 159.978 232.236 162.75 222.553 162.75 L 58.726 162.75 C 46.066 162.75 36.246 159.548 29.136 154.057 C 22.014 148.558 17.868 140.959 16.224 132.659 C 13.057 116.669 8.469 91.161 3.317 62.519 C 2.57 58.368 1.812 54.149 1.044 49.886 C -1.55 35.481 0.728 26.149 7.447 19.986 C 10.672 17.028 14.712 15.009 19.134 13.44 C 23.549 11.874 28.546 10.69 33.772 9.517 L 33.772 9.517 L 33.772 9.517 Z " fill="rgb(23,23,23)"/><path d=" M 33.554 9.281 C 61.234 3.066 116.175 0 146.589 0 C 178.338 0 220.462 1.851 253.55 9.281 C 267.625 12.442 275.159 17.688 278.623 24.392 C 281.998 30.924 281.018 38.052 280.253 43.459 C 277.213 64.96 272.961 90.744 268.11 120.153 L 268.096 120.241 C 265.562 135.601 259.163 146.307 250.736 153.153 C 242.34 159.973 232.193 162.75 222.501 162.75 L 58.529 162.75 C 45.858 162.75 36.03 159.543 28.913 154.044 C 21.786 148.536 17.636 140.926 15.99 132.613 C 12.82 116.598 8.228 91.05 3.072 62.365 C 2.324 58.207 1.565 53.982 0.797 49.712 C -1.799 35.285 0.481 25.939 7.205 19.766 C 10.434 16.803 14.477 14.781 18.903 13.21 C 23.322 11.642 28.323 10.456 33.554 9.281 Z  M 146.589 6.26 C 116.273 6.26 61.9 9.331 34.921 15.389 C 29.672 16.568 25.012 17.683 20.99 19.111 C 16.974 20.536 13.798 22.207 11.428 24.381 C 6.958 28.484 4.535 35.195 6.948 48.602 C 7.716 52.874 8.476 57.099 9.223 61.256 C 14.382 89.957 18.963 115.439 22.121 131.396 C 23.513 138.425 26.954 144.623 32.731 149.088 C 38.519 153.56 46.91 156.49 58.529 156.49 L 222.501 156.49 C 231.029 156.49 239.709 154.051 246.799 148.291 C 253.858 142.556 259.604 133.317 261.929 119.221 L 261.934 119.193 C 266.792 89.735 271.035 64.01 274.064 42.581 C 274.864 36.926 275.402 31.779 273.072 27.269 C 270.831 22.931 265.436 18.366 252.183 15.389 C 219.789 8.115 178.227 6.26 146.589 6.26 Z " fill-rule="evenodd" fill="rgb(46,46,46)"/></g></g></g></svg>