<?xml version="1.0" encoding="UTF-8" standalone="no"?><!-- Generator: Gravit.io --><svg xmlns="http://www.w3.org/2000/svg" xmlns:xlink="http://www.w3.org/1999/xlink" style="isolation:isolate" viewBox="0 0 706 566" width="706pt" height="566pt"><defs><clipPath id="_clipPath_bJ89qSxqFagcdUMMCqrj8v5YQflOhKWp"><rect width="706" height="566"/></clipPath></defs><g clip-path="url(#_clipPath_bJ89qSxqFagcdUMMCqrj8v5YQflOhKWp)"><clipPath id="_clipPath_2j66WzOLpv9R8UkPoRdK2lDdUtJZRnOT"><rect x="0" y="0" width="706" height="566" transform="matrix(1,0,0,1,0,0)" fill="rgb(255,255,255)"/></clipPath><g clip-path="url(#_clipPath_2j66WzOLpv9R8UkPoRdK2lDdUtJZRnOT)"><g><path d=" M 353.046 105.999 Q 429.349 105.005 482.408 121.726 L 487.137 118.349 L 526.504 119.89 L 526.504 103 C 554.306 95.424 583.982 101.434 615.503 121 L 615.503 133.776 Q 623.935 136.855 627.519 138.553 Q 705.426 296.667 703.093 437 Q 701.426 551.333 640.771 558.737 C 586.333 568 591.333 560.333 549.712 440 C 527.093 403.162 497.01 399.251 479.093 405 L 354 405 L 354 405 L 353 405 L 228 405 C 210.083 399.251 180 399.333 157.381 436.171 C 104 558 118.333 568.333 66.322 558.737 Q 5.667 551.333 4 437 Q 1.667 296.667 79.574 138.553 C 82.458 137.187 85.615 135.889 89.045 134.659 C 89.719 129.234 88.764 128.672 89.045 121.726 C 118.998 98.859 157.234 96.047 177 103 C 177.766 109.125 177.047 111.938 177.739 120.068 Q 197.272 118.813 219.956 118.349 L 224.684 121.726 Q 276.744 105.005 353.046 105.999 Z " fill-rule="evenodd" fill="rgb(12,12,12)"/><g><path d=" M 246.305 111.912 C 273.985 105.706 328.926 102.645 359.34 102.645 C 391.089 102.645 433.213 104.493 466.301 111.912 C 480.376 115.068 487.91 120.306 491.374 127 C 494.749 133.522 493.769 140.638 493.004 146.037 C 489.964 167.505 485.712 193.25 480.861 222.614 L 480.847 222.701 C 478.313 238.038 471.914 248.727 463.487 255.563 C 455.091 262.373 444.944 265.145 435.253 265.145 L 271.281 265.145 C 258.609 265.145 248.781 261.943 241.664 256.452 C 234.537 250.953 230.387 243.354 228.741 235.054 C 225.571 219.064 220.979 193.556 215.823 164.914 C 215.076 160.763 214.316 156.544 213.548 152.281 C 210.952 137.876 213.232 128.544 219.956 122.381 C 223.185 119.423 227.228 117.404 231.654 115.835 C 236.073 114.269 241.074 113.085 246.305 111.912 Z  M 359.34 108.895 C 329.024 108.895 274.651 111.962 247.673 118.011 C 242.423 119.188 237.763 120.301 233.741 121.726 C 229.726 123.149 226.549 124.818 224.179 126.989 C 219.709 131.086 217.286 137.786 219.699 151.172 C 220.468 155.438 221.227 159.656 221.974 163.807 C 227.133 192.464 231.714 217.907 234.872 233.839 C 236.264 240.857 239.705 247.046 245.483 251.504 C 251.271 255.969 259.661 258.895 271.281 258.895 L 435.253 258.895 C 443.78 258.895 452.46 256.459 459.55 250.708 C 466.609 244.983 472.356 235.757 474.681 221.683 L 474.685 221.655 C 479.543 192.243 483.786 166.556 486.816 145.161 C 487.615 139.514 488.153 134.376 485.823 129.872 C 483.582 125.541 478.188 120.983 464.934 118.011 C 432.541 110.748 390.978 108.895 359.34 108.895 Z " fill-rule="evenodd" fill="rgb(12,12,12)"/><path d=" M 153.05 118.349 C 180.163 115.276 205.888 114.809 221.342 115.327 C 222.898 115.379 224.179 116.569 224.344 118.118 C 224.51 119.667 223.509 121.101 221.999 121.481 C 218.961 122.245 216.794 125.434 215.641 130.813 C 214.547 135.918 214.666 141.8 215.137 145.683 C 217.203 156.091 222.499 184.594 227.389 216.569 C 232.446 249.638 219.013 273.006 211.203 280.863 L 211.197 280.87 C 200.766 291.363 189.948 302.246 174.785 323.603 C 159.348 345.344 137.278 394.279 117.424 441.999 C 102.508 477.851 88.962 512.718 80.554 534.357 C 77.799 541.448 75.596 547.119 74.078 550.939 C 74.046 551.019 74.011 551.098 73.972 551.175 C 73.824 551.473 73.666 551.806 73.496 552.164 C 72.941 553.334 72.251 554.788 71.323 556.256 L 90.829 558.894 C 94.219 558.869 96.797 558.213 98.957 557.019 C 101.179 555.796 103.181 553.886 105.206 551.046 C 108.709 546.134 111.899 539.048 116.326 529.214 C 117.178 527.321 118.076 525.327 119.03 523.227 C 126.579 506.618 134.313 486.741 141 469.549 L 141.581 468.056 C 144.982 459.314 148.103 451.314 150.759 444.921 C 153.371 438.631 155.653 433.59 157.381 430.982 C 161.761 424.372 168.185 414.749 179.209 408 C 190.296 401.212 205.68 397.526 227.668 401.854 L 478.103 401.854 C 495.639 397.514 511.104 399.636 523.861 406.918 C 536.662 414.227 546.438 426.563 552.886 442.071 C 560.319 459.947 565.03 473.298 569.439 486.061 C 569.857 487.271 570.273 488.476 570.687 489.678 C 574.641 501.149 578.525 512.417 584.15 526.484 C 584.738 527.945 585.3 529.398 585.863 530.836 C 588.756 538.27 591.488 545.277 595.688 550.596 C 598.119 553.674 600.969 556.056 604.519 557.531 C 608.056 558.994 612.513 559.644 618.294 558.925 L 634.838 556.119 C 633.956 554.694 633.294 553.297 632.756 552.164 C 632.581 551.806 632.425 551.473 632.275 551.175 C 632.238 551.098 632.206 551.019 632.175 550.939 C 630.656 547.119 628.45 541.449 625.694 534.359 C 617.288 512.719 603.744 477.852 588.825 441.999 C 568.973 394.279 546.902 345.344 531.465 323.603 C 516.302 302.246 505.484 291.363 495.054 280.87 L 495.047 280.863 C 487.237 273.006 473.804 249.638 478.861 216.569 C 483.751 184.595 489.047 156.091 491.113 145.683 C 491.584 141.8 491.703 135.918 490.609 130.813 C 489.456 125.434 487.289 122.245 484.251 121.481 C 482.741 121.101 481.74 119.667 481.906 118.118 C 482.071 116.569 483.352 115.379 484.908 115.327 C 500.363 114.809 526.088 115.276 553.2 118.349 C 580.25 121.416 608.994 127.11 630.288 137.193 C 630.9 137.481 631.394 137.958 631.713 138.553 C 648.181 169.614 684.656 255.598 699.419 352.131 C 708.638 412.444 707.906 459.819 700.919 494.179 C 693.969 528.358 680.669 550.376 664.044 558.738 C 653.269 564.156 645.919 564.713 640.656 561.887 C 640.463 561.781 640.275 561.675 640.094 561.563 L 619.275 565.1 C 619.231 565.106 619.181 565.113 619.138 565.119 C 612.456 565.956 606.863 565.263 602.125 563.3 C 597.394 561.344 593.731 558.2 590.788 554.471 C 585.944 548.344 582.813 540.277 579.938 532.865 C 579.406 531.484 578.875 530.125 578.35 528.806 C 572.663 514.59 568.732 503.187 564.779 491.719 C 564.364 490.515 563.949 489.311 563.532 488.102 C 559.139 475.386 554.476 462.174 547.114 444.47 C 541.063 429.914 532.088 418.813 520.761 412.346 C 509.481 405.906 495.573 403.891 479.253 408.009 C 479.003 408.073 478.746 408.104 478.488 408.104 L 227.361 408.104 C 227.156 408.104 226.951 408.084 226.749 408.044 C 205.914 403.883 192.084 407.446 182.472 413.331 C 172.746 419.285 166.975 427.819 162.591 434.434 C 161.257 436.448 159.197 440.898 156.531 447.318 C 153.908 453.634 150.813 461.564 147.406 470.323 L 146.798 471.886 C 140.13 489.025 132.343 509.043 124.72 525.813 C 123.807 527.822 122.936 529.76 122.097 531.625 C 117.692 541.423 114.189 549.214 110.294 554.674 C 107.914 558.013 105.259 560.681 101.973 562.494 C 98.669 564.313 94.947 565.144 90.625 565.144 C 90.485 565.144 90.345 565.138 90.206 565.119 L 65.734 561.806 C 65.687 561.838 65.64 561.863 65.593 561.887 C 60.333 564.713 52.982 564.156 42.207 558.738 C 25.582 550.376 12.279 528.358 5.33 494.179 C -1.656 459.819 -2.389 412.444 6.834 352.131 C 21.597 255.598 58.071 169.614 74.538 138.553 C 74.853 137.958 75.353 137.481 75.962 137.193 C 97.259 127.11 125.998 121.416 153.05 118.349 Z  M 63.366 555.929 C 63.314 555.963 63.262 555.998 63.211 556.038 C 63.026 556.156 62.833 556.275 62.633 556.381 C 60.123 557.731 55.223 558.288 45.016 553.154 C 31.014 546.112 18.286 526.537 11.454 492.934 C 4.659 459.513 3.861 412.919 13.013 353.076 C 27.506 258.303 63.146 173.727 79.574 142.402 C 99.841 133.035 127.316 127.556 153.754 124.559 C 176.021 122.035 197.342 121.292 212.618 121.406 C 211.07 123.884 210.114 126.776 209.53 129.503 C 208.235 135.543 208.409 142.23 208.948 146.564 C 208.958 146.639 208.969 146.714 208.984 146.788 C 211.018 157.016 216.318 185.521 221.211 217.513 C 225.953 248.528 213.253 269.936 206.771 276.457 C 196.244 287.047 185.148 298.212 169.689 319.984 C 153.764 342.413 131.428 392.068 111.653 439.599 C 96.703 475.533 83.097 510.554 74.695 532.181 C 71.984 539.158 69.815 544.741 68.317 548.511 C 68.149 548.849 67.986 549.183 67.826 549.511 C 66.505 552.216 65.382 554.516 63.366 555.929 Z  M 642.781 555.857 C 643.044 556.05 643.325 556.225 643.619 556.381 C 646.125 557.731 651.025 558.288 661.238 553.154 C 675.238 546.112 687.963 526.537 694.794 492.934 C 701.594 459.513 702.388 412.919 693.238 353.076 C 678.744 258.303 643.106 173.727 626.675 142.402 C 606.406 133.035 578.931 127.556 552.496 124.559 C 530.229 122.035 508.908 121.292 493.633 121.406 C 495.18 123.884 496.136 126.776 496.72 129.503 C 498.015 135.543 497.84 142.23 497.302 146.564 C 497.298 146.601 497.292 146.637 497.286 146.672 C 497.28 146.711 497.273 146.75 497.266 146.788 C 495.233 157.016 489.932 185.521 485.039 217.513 C 480.297 248.528 492.998 269.936 499.479 276.457 C 510.006 287.047 521.103 298.212 536.561 319.984 C 552.486 342.413 574.822 392.068 594.594 439.599 C 609.544 475.533 623.15 510.554 631.556 532.18 C 634.269 539.158 636.438 544.741 637.931 548.511 C 638.1 548.849 638.263 549.183 638.425 549.511 C 639.675 552.076 640.75 554.277 642.575 555.703 C 642.65 555.751 642.719 555.803 642.781 555.857 Z " fill-rule="evenodd" fill="rgb(12,12,12)"/><g><path d=" M 187.5 333.895 C 187.5 306.281 209.886 283.895 237.5 283.895 C 265.114 283.895 287.5 306.281 287.5 333.895 C 287.5 361.509 265.114 383.895 237.5 383.895 C 209.886 383.895 187.5 361.509 187.5 333.895 L 187.5 333.895 L 187.5 333.895 Z " fill="rgb(0,0,0)"/></g><g><path d=" M 418.75 333.895 C 418.75 306.281 441.136 283.895 468.75 283.895 C 496.364 283.895 518.75 306.281 518.75 333.895 C 518.75 361.509 496.364 383.895 468.75 383.895 C 441.136 383.895 418.75 361.509 418.75 333.895 L 418.75 333.895 L 418.75 333.895 Z " fill="rgb(0,0,0)"/></g><g><path d=" M 612.05 122.59 L 612.05 128.056 C 581.494 118.669 546.731 115.802 529.486 115.488 L 529.486 105.022 C 546.402 101.066 563.534 103.024 578.325 107.271 C 592.869 111.445 604.95 117.776 612.05 122.59 Z  M 580.05 101.263 C 563.874 96.619 544.642 94.473 525.555 99.563 C 524.188 99.928 523.236 101.167 523.236 102.582 L 523.236 118.583 C 523.236 120.308 524.634 121.708 526.361 121.708 C 542.506 121.708 581.606 124.504 614.188 135.299 C 615.144 135.614 616.188 135.454 617 134.866 C 617.819 134.279 618.3 133.336 618.3 132.333 L 618.3 120.958 C 618.3 119.949 617.813 119.001 616.988 118.415 C 609.556 113.107 596.219 105.906 580.05 101.263 Z " fill-rule="evenodd" fill="rgb(12,12,12)"/><path d=" M 91.986 122.59 L 91.986 128.056 C 122.543 118.669 157.303 115.802 174.549 115.488 L 174.549 105.022 C 157.633 101.066 140.501 103.024 125.708 107.271 C 111.168 111.445 99.084 117.776 91.986 122.59 Z  M 123.983 101.263 C 140.16 96.619 159.393 94.473 178.479 99.563 C 179.847 99.928 180.799 101.167 180.799 102.582 L 180.799 118.583 C 180.799 120.308 179.4 121.708 177.674 121.708 C 161.528 121.708 122.427 124.504 89.844 135.299 C 88.891 135.614 87.845 135.454 87.031 134.866 C 86.218 134.279 85.736 133.336 85.736 132.333 L 85.736 120.958 C 85.736 119.949 86.224 119.001 87.045 118.415 C 94.476 113.107 107.814 105.906 123.983 101.263 Z " fill-rule="evenodd" fill="rgb(12,12,12)"/></g><path d=" M 551.331 118.314 C 523.888 115.274 497.85 114.813 482.209 115.325 C 480.649 115.376 479.366 116.571 479.204 118.124 C 479.041 119.676 480.05 121.111 481.566 121.483 C 484.68 122.249 486.859 125.417 488.018 130.702 C 489.123 135.738 489.003 141.543 488.527 145.378 C 486.434 155.679 481.074 183.881 476.124 215.516 C 470.998 248.276 484.615 271.421 492.523 279.196 L 492.529 279.202 C 503.089 289.585 514.041 300.353 529.391 321.483 C 545.015 342.989 567.356 391.402 587.456 438.619 C 602.556 474.091 616.269 508.588 624.781 529.999 C 627.569 537.016 629.8 542.628 631.338 546.408 C 631.369 546.489 631.406 546.569 631.45 546.647 C 631.6 546.942 631.756 547.271 631.931 547.626 C 633.294 550.438 635.463 554.901 639.925 557.25 C 645.213 560.025 652.613 559.494 663.519 554.132 C 680.331 545.865 693.813 524.076 700.85 490.233 C 707.925 456.221 708.669 409.332 699.331 349.647 C 684.381 254.12 647.45 169.034 630.781 138.298 C 630.456 137.706 629.956 137.234 629.344 136.951 C 607.794 126.981 578.713 121.349 551.331 118.314 Z  M 625.781 142.194 C 642.413 173.186 678.488 256.857 693.156 350.613 C 702.419 409.818 701.613 455.907 694.731 488.96 C 687.819 522.183 674.95 541.548 660.756 548.523 C 650.419 553.606 645.419 553.073 642.838 551.716 C 640.306 550.385 639.063 547.902 637.575 544.922 C 637.413 544.598 637.25 544.268 637.081 543.933 C 635.563 540.204 633.369 534.681 630.625 527.779 C 622.119 506.381 608.344 471.728 593.206 436.171 C 573.188 389.144 550.573 340.006 534.447 317.809 C 518.796 296.264 507.561 285.217 496.904 274.739 C 490.343 268.288 477.503 247.128 482.299 216.482 C 487.251 184.828 492.617 156.626 494.675 146.508 C 494.691 146.431 494.703 146.355 494.713 146.278 C 495.259 141.982 495.436 135.354 494.123 129.363 C 493.534 126.677 492.575 123.841 491.037 121.406 C 506.506 121.294 528.096 122.028 550.643 124.526 C 577.417 127.493 605.25 132.917 625.781 142.194 Z " fill-rule="evenodd" fill="rgb(12,12,12)"/><path d=" M 154.919 118.314 C 182.362 115.274 208.4 114.813 224.041 115.325 C 225.601 115.376 226.884 116.571 227.046 118.124 C 227.209 119.676 226.2 121.111 224.684 121.483 C 221.57 122.249 219.391 125.417 218.232 130.702 C 217.128 135.738 217.248 141.543 217.723 145.378 C 219.816 155.679 225.176 183.881 230.126 215.516 C 235.253 248.276 221.635 271.421 213.728 279.196 L 213.722 279.201 C 203.161 289.585 192.209 300.353 176.859 321.483 C 161.235 342.989 138.894 391.402 118.794 438.619 C 103.694 474.091 89.981 508.588 81.469 529.999 C 78.68 537.016 76.449 542.628 74.911 546.408 C 74.878 546.489 74.842 546.569 74.802 546.647 C 74.652 546.942 74.493 547.271 74.319 547.626 C 72.954 550.438 70.786 554.901 66.322 557.25 C 61.038 560.025 53.638 559.494 42.734 554.132 C 25.918 545.865 12.438 524.076 5.398 490.233 C -1.678 456.221 -2.419 409.332 6.92 349.647 C 21.868 254.12 58.798 169.034 75.471 138.298 C 75.791 137.706 76.294 137.234 76.905 136.951 C 98.454 126.981 127.537 121.349 154.919 118.314 Z  M 80.47 142.194 C 63.84 173.186 27.765 256.857 13.095 350.613 C 3.831 409.818 4.641 455.907 11.517 488.96 C 18.428 522.183 31.303 541.548 45.491 548.523 C 55.83 553.606 60.833 553.073 63.414 551.716 C 65.945 550.385 67.185 547.903 68.674 544.923 C 68.836 544.598 69.001 544.268 69.171 543.933 C 70.687 540.204 72.882 534.681 75.626 527.779 C 84.132 506.381 97.908 471.728 113.043 436.171 C 133.063 389.144 155.678 340.006 171.803 317.809 C 187.454 296.264 198.689 285.217 209.346 274.739 C 215.907 268.288 228.747 247.129 223.951 216.482 C 218.999 184.828 213.633 156.626 211.575 146.508 C 211.559 146.431 211.547 146.355 211.537 146.278 C 210.991 141.982 210.814 135.354 212.127 129.363 C 212.716 126.677 213.675 123.841 215.213 121.406 C 199.744 121.294 178.154 122.028 155.608 124.526 C 128.833 127.493 101.002 132.917 80.47 142.194 Z " fill-rule="evenodd" fill="rgb(12,12,12)"/><g><circle vector-effect="non-scaling-stroke" cx="355.1250112596216" cy="331.99999999999994" r="20.19999999999999" fill="rgb(12,12,12)"/><g style="opacity:0.2;"><path d=" M 356.225 338.6 L 356.225 325.8 C 356.185 325.44 356.293 325.079 356.525 324.8 C 356.68 324.574 356.974 324.49 357.225 324.6 C 357.825 324.8 358.125 325.3 358.125 326.3 L 358.125 333.2 C 358.775 333.533 359.495 333.704 360.225 333.7 C 360.797 333.703 361.356 333.528 361.825 333.2 C 362.825 332.5 363.325 331.3 363.325 329.5 C 363.446 327.97 363.021 326.446 362.125 325.2 C 361.03 323.966 359.609 323.065 358.025 322.6 C 356.725 322.2 355.525 321.8 354.425 321.5 C 353.325 321.2 352.425 321 351.525 320.8 L 351.525 333 L 351.525 333 L 351.525 335.7 L 351.525 335.7 L 351.525 337.4 L 351.525 337.4 L 351.525 339.9 L 351.525 339.9 L 351.525 341.4 L 356.225 342.9 L 356.225 339.3 L 356.225 339.3 L 356.225 338.6 L 356.225 338.6 Z " fill="rgb(242,242,242)"/><path d=" M 351.125 337.6 L 349.425 338.2 L 348.525 338.6 L 346.925 338.9 L 345.425 338.7 C 345.125 338.5 345.025 338.3 345.225 338.1 C 345.425 337.9 345.425 338 345.525 337.9 C 345.625 337.8 345.825 337.8 345.925 337.7 L 347.025 337.3 L 351.125 335.8 L 351.125 333.1 L 349.425 333.6 L 343.925 335.6 L 342.925 336 C 341.425 336.6 340.725 337.2 340.725 337.8 C 340.825 338.6 341.725 339.3 343.425 339.7 C 344.827 340.071 346.275 340.239 347.725 340.2 C 348.831 340.191 349.935 340.09 351.025 339.9 L 351.025 337.6 L 351.125 337.6 L 351.125 337.6 Z " fill="rgb(242,242,242)"/><path d=" M 366.925 335.3 C 366.114 335.017 365.276 334.816 364.425 334.7 C 363.599 334.567 362.759 334.533 361.925 334.6 C 360.987 334.65 360.052 334.751 359.125 334.9 C 358.236 335.089 357.366 335.356 356.525 335.7 L 356.525 338.5 L 360.425 337.1 L 362.025 336.6 L 363.125 336.3 L 364.525 336.3 C 364.825 336.4 365.125 336.5 365.225 336.7 C 365.325 336.9 365.025 337.1 364.425 337.3 L 363.025 337.8 L 356.525 340.2 L 356.525 342.9 L 360.025 341.6 L 366.425 339.3 L 367.125 338.9 C 368.625 338.4 369.325 337.7 369.325 337 C 369.325 336.3 368.525 335.8 366.925 335.3 Z " fill="rgb(242,242,242)"/></g></g><g><path d=" M 87.181 108.895 C 87.181 108.895 112.376 94.267 135.473 90.8 C 158.569 87.333 181.569 90 181.569 90 C 181.569 90 178.611 45.3 176.988 38 C 175.366 30.7 169.64 16.7 160.859 10.1 C 152.079 3.5 149.597 0 139.29 0 C 128.983 0 115.049 6.4 106.268 21.4 C 97.488 36.4 87.181 108.895 87.181 108.895 Z " fill="rgb(18,18,18)"/><clipPath id="_clipPath_UG3dnAR8zXqSroD2MQy51QGxjyANS3cK"><path d=" M 87.181 108.895 C 87.181 108.895 112.376 94.267 135.473 90.8 C 158.569 87.333 181.569 90 181.569 90 C 181.569 90 178.611 45.3 176.988 38 C 175.366 30.7 169.64 16.7 160.859 10.1 C 152.079 3.5 149.597 0 139.29 0 C 128.983 0 115.049 6.4 106.268 21.4 C 97.488 36.4 87.181 108.895 87.181 108.895 Z " fill="rgb(255,255,255)"/></clipPath><g clip-path="url(#_clipPath_UG3dnAR8zXqSroD2MQy51QGxjyANS3cK)"><path d=" M 87.181 108.895 C 87.181 108.895 112.376 94.267 135.473 90.8 C 158.569 87.333 181.569 90 181.569 90 C 181.569 90 178.611 45.3 176.988 38 C 175.366 30.7 169.64 16.7 160.859 10.1 C 152.079 3.5 149.597 0 139.29 0 C 128.983 0 115.049 6.4 106.268 21.4 C 97.488 36.4 87.181 108.895 87.181 108.895 Z " fill="rgb(12,12,12)"/></g><path d=" M 619.069 108.895 C 619.069 108.895 593.874 94.267 570.777 90.8 C 547.681 87.333 524.681 90 524.681 90 C 524.681 90 527.639 45.3 529.262 38 C 530.884 30.7 536.61 16.7 545.391 10.1 C 554.171 3.5 556.653 0 566.96 0 C 577.267 0 591.201 6.4 599.982 21.4 C 608.762 36.4 619.069 108.895 619.069 108.895 Z " fill="rgb(18,18,18)"/><clipPath id="_clipPath_2GRRq7JnFoCCQM7KGBhSWydvjvjuAP2A"><path d=" M 619.069 108.895 C 619.069 108.895 593.874 94.267 570.777 90.8 C 547.681 87.333 524.681 90 524.681 90 C 524.681 90 527.639 45.3 529.262 38 C 530.884 30.7 536.61 16.7 545.391 10.1 C 554.171 3.5 556.653 0 566.96 0 C 577.267 0 591.201 6.4 599.982 21.4 C 608.762 36.4 619.069 108.895 619.069 108.895 Z " fill="rgb(255,255,255)"/></clipPath><g clip-path="url(#_clipPath_2GRRq7JnFoCCQM7KGBhSWydvjvjuAP2A)"><path d=" M 619.069 108.895 C 619.069 108.895 593.874 94.267 570.777 90.8 C 547.681 87.333 524.681 90 524.681 90 C 524.681 90 527.639 45.3 529.262 38 C 530.884 30.7 536.61 16.7 545.391 10.1 C 554.171 3.5 556.653 0 566.96 0 C 577.267 0 591.201 6.4 599.982 21.4 C 608.762 36.4 619.069 108.895 619.069 108.895 Z " fill="rgb(12,12,12)"/></g></g></g></g></g></g></svg>