<?xml version="1.0" encoding="UTF-8" standalone="no"?><!-- Generator: Gravit.io --><svg xmlns="http://www.w3.org/2000/svg" xmlns:xlink="http://www.w3.org/1999/xlink" style="isolation:isolate" viewBox="0 0 706 566" width="706pt" height="566pt"><defs><clipPath id="_clipPath_CHscPeG7zagH2QDOhOdBboXdeHK2qHae"><rect width="706" height="566"/></clipPath></defs><g clip-path="url(#_clipPath_CHscPeG7zagH2QDOhOdBboXdeHK2qHae)"><clipPath id="_clipPath_hs0Jy8VdcmWILrPrQSVasiFnSevXnApT"><rect x="0" y="0" width="706" height="566" transform="matrix(1,0,0,1,0,0)" fill="rgb(255,255,255)"/></clipPath><g clip-path="url(#_clipPath_hs0Jy8VdcmWILrPrQSVasiFnSevXnApT)"><g><g><g><path d=" M 353.046 105.999 Q 429.349 105.005 482.408 121.726 L 487.137 118.349 L 526.504 119.89 L 526.504 103 C 554.306 95.424 583.982 101.434 615.503 121 L 615.503 133.776 Q 623.935 136.855 627.519 138.553 Q 705.426 296.667 703.093 437 Q 701.426 551.333 640.771 558.737 C 586.333 568 591.333 560.333 549.712 440 C 527.093 403.162 497.01 399.251 479.093 405 L 354 405 L 354 405 L 353 405 L 228 405 C 210.083 399.251 180 399.333 157.381 436.171 C 104 558 118.333 568.333 66.322 558.737 Q 5.667 551.333 4 437 Q 1.667 296.667 79.574 138.553 C 82.458 137.187 85.615 135.889 89.045 134.659 C 89.719 129.234 88.764 128.672 89.045 121.726 C 118.998 98.859 157.234 96.047 177 103 C 177.766 109.125 177.047 111.938 177.739 120.068 Q 197.272 118.813 219.956 118.349 L 224.684 121.726 Q 276.744 105.005 353.046 105.999 Z " fill-rule="evenodd" fill="rgb(11,11,11)"/><linearGradient id="_lgradient_0" x1="0" y1="0.5000014433481347" x2="1" y2="0.5000014433481347" gradientTransform="matrix(224.391,0,0,438.775,3,118.344)" gradientUnits="userSpaceOnUse"><stop offset="0%" stop-opacity="1" style="stop-color:rgb(94,5,24)"/><stop offset="100%" stop-opacity="1" style="stop-color:rgb(191,14,52)"/></linearGradient><path d=" M 219.188 118.688 C 165.057 116.555 117.389 124.388 77.5 140.5 C 30.331 237.237 5.508 335.414 3 435 C 5.771 518.88 25.615 559.39 62.5 556.5 C 70.14 569.525 135.5 373 174.5 319.57 C 200.625 283.078 225.07 275.484 227.391 238 L 213 137.5 L 219.188 118.688 L 219.188 118.688 L 219.188 118.688 L 219.188 118.688 L 219.188 118.688 Z " fill="url(#_lgradient_0)"/><linearGradient id="_lgradient_1" x1="0" y1="0.49999997309278416" x2="1" y2="0.49999997309278416" gradientTransform="matrix(224.391,0,0,438.775,478.77,118.343)" gradientUnits="userSpaceOnUse"><stop offset="0%" stop-opacity="1" style="stop-color:rgb(191,14,52)"/><stop offset="100%" stop-opacity="1" style="stop-color:rgb(94,5,24)"/></linearGradient><path d=" M 486.973 118.687 C 541.104 116.555 588.772 124.388 628.661 140.5 C 675.83 237.237 700.653 335.414 703.161 435 C 700.39 518.88 680.546 559.39 643.661 556.5 C 636.021 569.525 570.661 373 531.661 319.57 C 505.536 283.078 481.091 275.484 478.77 238 L 493.161 137.5 L 486.973 118.687 L 486.973 118.687 L 486.973 118.687 L 486.973 118.687 L 486.973 118.687 Z " fill="url(#_lgradient_1)"/><path d=" M 244.875 256.5 C 252.588 263.869 277.75 262.125 355.875 262.125 C 434 262.125 451 264.5 462.75 252.75 C 486.333 229.167 491.273 134.789 489 125.25 C 470.391 116.648 466.667 105.75 358 105.75 C 249.333 105.75 237.516 117.281 216.375 125.25 C 214.523 132.047 221.695 234.352 244.875 256.5 Z " fill="rgb(188,14,51)"/><g><path d=" M 246.305 111.912 C 273.985 105.706 328.926 102.645 359.34 102.645 C 391.089 102.645 433.213 104.493 466.301 111.912 C 480.376 115.068 487.91 120.306 491.374 127 C 494.749 133.522 493.769 140.638 493.004 146.037 C 489.964 167.505 485.712 193.25 480.861 222.614 L 480.847 222.701 C 478.313 238.038 471.914 248.727 463.487 255.563 C 455.091 262.373 444.944 265.145 435.253 265.145 L 271.281 265.145 C 258.609 265.145 248.781 261.943 241.664 256.452 C 234.537 250.953 230.387 243.354 228.741 235.054 C 225.571 219.064 220.979 193.556 215.823 164.914 C 215.076 160.763 214.316 156.544 213.548 152.281 C 210.952 137.876 213.232 128.544 219.956 122.381 C 223.185 119.423 227.228 117.404 231.654 115.835 C 236.073 114.269 241.074 113.085 246.305 111.912 Z  M 359.34 108.895 C 329.024 108.895 274.651 111.962 247.673 118.011 C 242.423 119.188 237.763 120.301 233.741 121.726 C 229.726 123.149 226.549 124.818 224.179 126.989 C 219.709 131.086 217.286 137.786 219.699 151.172 C 220.468 155.438 221.227 159.656 221.974 163.807 C 227.133 192.464 231.714 217.907 234.872 233.839 C 236.264 240.857 239.705 247.046 245.483 251.504 C 251.271 255.969 259.661 258.895 271.281 258.895 L 435.253 258.895 C 443.78 258.895 452.46 256.459 459.55 250.708 C 466.609 244.983 472.356 235.757 474.681 221.683 L 474.685 221.655 C 479.543 192.243 483.786 166.556 486.816 145.161 C 487.615 139.514 488.153 134.376 485.823 129.872 C 483.582 125.541 478.188 120.983 464.934 118.011 C 432.541 110.748 390.978 108.895 359.34 108.895 Z " fill-rule="evenodd" fill="rgb(11,11,11)"/><g><path d=" M 187.5 333.895 C 187.5 306.281 209.886 283.895 237.5 283.895 C 265.114 283.895 287.5 306.281 287.5 333.895 C 287.5 361.509 265.114 383.895 237.5 383.895 C 209.886 383.895 187.5 361.509 187.5 333.895 L 187.5 333.895 L 187.5 333.895 L 187.5 333.895 L 187.5 333.895 L 187.5 333.895 Z " fill="rgb(68,2,17)"/></g><g><path d=" M 418.75 333.895 C 418.75 306.281 441.136 283.895 468.75 283.895 C 496.364 283.895 518.75 306.281 518.75 333.895 C 518.75 361.509 496.364 383.895 468.75 383.895 C 441.136 383.895 418.75 361.509 418.75 333.895 L 418.75 333.895 L 418.75 333.895 L 418.75 333.895 L 418.75 333.895 L 418.75 333.895 Z " fill="rgb(68,2,17)"/></g><g><path d=" M 612.05 122.59 L 612.05 128.056 C 581.494 118.669 546.731 115.802 529.486 115.488 L 529.486 105.022 C 546.402 101.066 563.534 103.024 578.325 107.271 C 592.869 111.445 604.95 117.776 612.05 122.59 Z  M 580.05 101.263 C 563.874 96.619 544.642 94.473 525.555 99.563 C 524.188 99.928 523.236 101.167 523.236 102.582 L 523.236 118.583 C 523.236 120.308 524.634 121.708 526.361 121.708 C 542.506 121.708 581.606 124.504 614.188 135.299 C 615.144 135.614 616.188 135.454 617 134.866 C 617.819 134.279 618.3 133.336 618.3 132.333 L 618.3 120.958 C 618.3 119.949 617.813 119.001 616.988 118.415 C 609.556 113.107 596.219 105.906 580.05 101.263 Z " fill-rule="evenodd" fill="rgb(11,11,11)"/><path d=" M 91.986 122.59 L 91.986 128.056 C 122.543 118.669 157.303 115.802 174.549 115.488 L 174.549 105.022 C 157.633 101.066 140.501 103.024 125.708 107.271 C 111.168 111.445 99.084 117.776 91.986 122.59 Z  M 123.983 101.263 C 140.16 96.619 159.393 94.473 178.479 99.563 C 179.847 99.928 180.799 101.167 180.799 102.582 L 180.799 118.583 C 180.799 120.308 179.4 121.708 177.674 121.708 C 161.528 121.708 122.427 124.504 89.844 135.299 C 88.891 135.614 87.845 135.454 87.031 134.866 C 86.218 134.279 85.736 133.336 85.736 132.333 L 85.736 120.958 C 85.736 119.949 86.224 119.001 87.045 118.415 C 94.476 113.107 107.814 105.906 123.983 101.263 Z " fill-rule="evenodd" fill="rgb(11,11,11)"/></g><linearGradient id="_lgradient_2" x1="9.26758622288304e-7" y1="0.4999994998170598" x2="1.0000008132929818" y2="0.4999994998170598" gradientTransform="matrix(231.249,0,0,443.753,475,115.145)" gradientUnits="userSpaceOnUse"><stop offset="0%" stop-opacity="1" style="stop-color:rgb(191,14,52)"/><stop offset="100%" stop-opacity="1" style="stop-color:rgb(94,5,24)"/></linearGradient><path d=" M 551.331 118.314 C 523.888 115.274 497.85 114.813 482.209 115.325 C 480.649 115.376 479.366 116.571 479.204 118.124 C 479.041 119.676 480.05 121.111 481.566 121.483 C 484.68 122.249 486.859 125.417 488.018 130.702 C 489.123 135.738 489.003 141.543 488.527 145.378 C 486.434 155.679 481.074 183.881 476.124 215.516 C 470.998 248.276 484.615 271.421 492.523 279.196 L 492.529 279.202 C 503.089 289.585 514.041 300.353 529.391 321.483 C 545.015 342.989 567.356 391.402 587.456 438.619 C 602.556 474.091 616.269 508.588 624.781 529.999 C 627.569 537.016 629.8 542.628 631.338 546.408 C 631.369 546.489 631.406 546.569 631.45 546.647 C 631.6 546.942 631.756 547.271 631.931 547.626 C 633.294 550.438 635.463 554.901 639.925 557.25 C 645.213 560.025 652.613 559.494 663.519 554.132 C 680.331 545.865 693.813 524.076 700.85 490.233 C 707.925 456.221 708.669 409.332 699.331 349.647 C 684.381 254.12 647.45 169.034 630.781 138.298 C 630.456 137.706 629.956 137.234 629.344 136.951 C 607.794 126.981 578.713 121.349 551.331 118.314 Z  M 625.781 142.194 C 642.413 173.186 678.488 256.857 693.156 350.613 C 702.419 409.818 701.613 455.907 694.731 488.96 C 687.819 522.183 674.95 541.548 660.756 548.523 C 650.419 553.606 645.419 553.073 642.838 551.716 C 640.306 550.385 639.063 547.902 637.575 544.922 C 637.413 544.598 637.25 544.268 637.081 543.933 C 635.563 540.204 633.369 534.681 630.625 527.779 C 622.119 506.381 608.344 471.728 593.206 436.171 C 573.188 389.144 550.573 340.006 534.447 317.809 C 518.796 296.264 507.561 285.217 496.904 274.739 C 490.343 268.288 477.503 247.128 482.299 216.482 C 487.251 184.828 492.617 156.626 494.675 146.508 C 494.691 146.431 494.703 146.355 494.713 146.278 C 495.259 141.982 495.436 135.354 494.123 129.363 C 493.534 126.677 492.575 123.841 491.037 121.406 C 506.506 121.294 528.096 122.028 550.643 124.526 C 577.417 127.493 605.25 132.917 625.781 142.194 Z " fill-rule="evenodd" fill="url(#_lgradient_2)"/><linearGradient id="_lgradient_3" x1="4.971299597120804e-7" y1="0.4999994998170598" x2="1.0000019657821386" y2="0.4999994998170598" gradientTransform="matrix(231.251,0,0,443.753,0,115.145)" gradientUnits="userSpaceOnUse"><stop offset="0%" stop-opacity="1" style="stop-color:rgb(94,5,24)"/><stop offset="100%" stop-opacity="1" style="stop-color:rgb(191,14,52)"/></linearGradient><path d=" M 154.919 118.314 C 182.362 115.274 208.4 114.813 224.041 115.325 C 225.601 115.376 226.884 116.571 227.046 118.124 C 227.209 119.676 226.2 121.111 224.684 121.483 C 221.57 122.249 219.391 125.417 218.232 130.702 C 217.128 135.738 217.248 141.543 217.723 145.378 C 219.816 155.679 225.176 183.881 230.126 215.516 C 235.253 248.276 221.635 271.421 213.728 279.196 L 213.722 279.201 C 203.161 289.585 192.209 300.353 176.859 321.483 C 161.235 342.989 138.894 391.402 118.794 438.619 C 103.694 474.091 89.981 508.588 81.469 529.999 C 78.68 537.016 76.449 542.628 74.911 546.408 C 74.878 546.489 74.842 546.569 74.802 546.647 C 74.652 546.942 74.493 547.271 74.319 547.626 C 72.954 550.438 70.786 554.901 66.322 557.25 C 61.038 560.025 53.638 559.494 42.734 554.132 C 25.918 545.865 12.438 524.076 5.398 490.233 C -1.678 456.221 -2.419 409.332 6.92 349.647 C 21.868 254.12 58.798 169.034 75.471 138.298 C 75.791 137.706 76.294 137.234 76.905 136.951 C 98.454 126.981 127.537 121.349 154.919 118.314 Z  M 80.47 142.194 C 63.84 173.186 27.765 256.857 13.095 350.613 C 3.831 409.818 4.641 455.907 11.517 488.96 C 18.428 522.183 31.303 541.548 45.491 548.523 C 55.83 553.606 60.833 553.073 63.414 551.716 C 65.945 550.385 67.185 547.903 68.674 544.923 C 68.836 544.598 69.001 544.268 69.171 543.933 C 70.687 540.204 72.882 534.681 75.626 527.779 C 84.132 506.381 97.908 471.728 113.043 436.171 C 133.063 389.144 155.678 340.006 171.803 317.809 C 187.454 296.264 198.689 285.217 209.346 274.739 C 215.907 268.288 228.747 247.129 223.951 216.482 C 218.999 184.828 213.633 156.626 211.575 146.508 C 211.559 146.431 211.547 146.355 211.537 146.278 C 210.991 141.982 210.814 135.354 212.127 129.363 C 212.716 126.677 213.675 123.841 215.213 121.406 C 199.744 121.294 178.154 122.028 155.608 124.526 C 128.833 127.493 101.002 132.917 80.47 142.194 Z " fill-rule="evenodd" fill="url(#_lgradient_3)"/><g><path d=" M 573.4 165.145 C 564.588 165.145 557.443 172.141 557.443 180.77 C 557.443 189.399 564.588 196.395 573.4 196.395 C 582.214 196.395 589.357 189.399 589.357 180.77 C 589.357 172.141 582.214 165.145 573.4 165.145 Z  M 551.061 180.77 C 551.061 168.689 561.062 158.895 573.4 158.895 C 585.738 158.895 595.739 168.689 595.739 180.77 C 595.739 192.851 585.738 202.645 573.4 202.645 C 561.062 202.645 551.061 192.851 551.061 180.77 Z " fill-rule="evenodd" fill="rgb(11,11,11)"/><path d=" M 573.4 265.145 C 564.588 265.145 557.443 272.141 557.443 280.77 C 557.443 289.399 564.588 296.395 573.4 296.395 C 582.214 296.395 589.357 289.399 589.357 280.77 C 589.357 272.141 582.214 265.145 573.4 265.145 Z  M 551.061 280.77 C 551.061 268.689 561.062 258.895 573.4 258.895 C 585.738 258.895 595.739 268.689 595.739 280.77 C 595.739 292.851 585.738 302.645 573.4 302.645 C 561.062 302.645 551.061 292.851 551.061 280.77 Z " fill-rule="evenodd" fill="rgb(11,11,11)"/><path d=" M 522.339 215.145 C 513.527 215.145 506.383 222.141 506.383 230.77 C 506.383 239.399 513.527 246.395 522.339 246.395 C 531.152 246.395 538.296 239.399 538.296 230.77 C 538.296 222.141 531.152 215.145 522.339 215.145 Z  M 500 230.77 C 500 218.689 510.002 208.895 522.339 208.895 C 534.677 208.895 544.678 218.689 544.678 230.77 C 544.678 242.851 534.677 252.645 522.339 252.645 C 510.002 252.645 500 242.851 500 230.77 Z " fill-rule="evenodd" fill="rgb(11,11,11)"/><path d=" M 624.461 215.145 C 615.646 215.145 608.504 222.141 608.504 230.77 C 608.504 239.399 615.646 246.395 624.461 246.395 C 633.275 246.395 640.417 239.399 640.417 230.77 C 640.417 222.141 633.275 215.145 624.461 215.145 Z  M 602.122 230.77 C 602.122 218.689 612.123 208.895 624.461 208.895 C 636.798 208.895 646.8 218.689 646.8 230.77 C 646.8 242.851 636.798 252.645 624.461 252.645 C 612.123 252.645 602.122 242.851 602.122 230.77 Z " fill-rule="evenodd" fill="rgb(11,11,11)"/></g><g><path d=" M 136.655 256.521 C 135.42 255.204 133.33 255.204 132.095 256.521 L 119.595 269.854 C 119.053 270.434 118.75 271.198 118.75 271.992 L 118.75 293.27 C 118.75 294.996 120.149 296.395 121.875 296.395 L 146.875 296.395 C 148.601 296.395 150 294.996 150 293.27 L 150 271.992 C 150 271.198 149.698 270.434 149.155 269.854 L 136.655 256.521 L 136.655 256.521 L 136.655 256.521 L 136.655 256.521 L 136.655 256.521 Z  M 127.536 252.246 C 131.239 248.296 137.511 248.296 141.214 252.246 L 153.714 265.579 C 155.343 267.318 156.25 269.61 156.25 271.992 L 156.25 293.27 C 156.25 298.448 152.053 302.645 146.875 302.645 L 121.875 302.645 C 116.698 302.645 112.5 298.448 112.5 293.27 L 112.5 271.992 C 112.5 269.61 113.407 267.318 115.036 265.579 L 127.536 252.246 L 127.536 252.246 L 127.536 252.246 L 127.536 252.246 L 127.536 252.246 Z " fill-rule="evenodd" fill="rgb(11,11,11)"/><path d=" M 132.095 217.519 C 133.33 218.836 135.42 218.836 136.655 217.519 L 149.155 204.186 C 149.698 203.606 150 202.842 150 202.048 L 150 180.77 C 150 179.044 148.601 177.645 146.875 177.645 L 121.875 177.645 C 120.149 177.645 118.75 179.044 118.75 180.77 L 118.75 202.048 C 118.75 202.842 119.053 203.606 119.595 204.186 L 132.095 217.519 L 132.095 217.519 L 132.095 217.519 L 132.095 217.519 L 132.095 217.519 Z  M 141.214 221.794 C 137.511 225.744 131.239 225.744 127.536 221.794 L 115.036 208.46 C 113.407 206.723 112.5 204.43 112.5 202.048 L 112.5 180.77 C 112.5 175.593 116.698 171.395 121.875 171.395 L 146.875 171.395 C 152.053 171.395 156.25 175.593 156.25 180.77 L 156.25 202.048 C 156.25 204.43 155.343 206.723 153.714 208.46 L 141.214 221.794 L 141.214 221.794 L 141.214 221.794 L 141.214 221.794 L 141.214 221.794 Z " fill-rule="evenodd" fill="rgb(11,11,11)"/><path d=" M 114.874 239.3 C 116.191 238.065 116.191 235.975 114.874 234.74 L 101.541 222.24 C 100.961 221.697 100.198 221.395 99.403 221.395 L 78.125 221.395 C 76.399 221.395 75 222.794 75 224.52 L 75 249.52 C 75 251.246 76.399 252.645 78.125 252.645 L 99.403 252.645 C 100.198 252.645 100.961 252.342 101.541 251.8 L 114.874 239.3 L 114.874 239.3 L 114.874 239.3 L 114.874 239.3 L 114.874 239.3 Z  M 119.149 230.181 C 123.099 233.884 123.099 240.156 119.149 243.859 L 105.816 256.359 C 104.078 257.988 101.785 258.895 99.403 258.895 L 78.125 258.895 C 72.948 258.895 68.75 254.698 68.75 249.52 L 68.75 224.52 C 68.75 219.342 72.948 215.145 78.125 215.145 L 99.403 215.145 C 101.785 215.145 104.078 216.051 105.816 217.681 L 119.149 230.181 L 119.149 230.181 L 119.149 230.181 L 119.149 230.181 L 119.149 230.181 Z " fill-rule="evenodd" fill="rgb(11,11,11)"/><path d=" M 153.876 234.74 C 152.559 235.975 152.559 238.065 153.876 239.3 L 167.209 251.8 C 167.789 252.342 168.553 252.645 169.347 252.645 L 190.625 252.645 C 192.351 252.645 193.75 251.246 193.75 249.52 L 193.75 224.52 C 193.75 222.794 192.351 221.395 190.625 221.395 L 169.347 221.395 C 168.553 221.395 167.789 221.697 167.209 222.24 L 153.876 234.74 L 153.876 234.74 L 153.876 234.74 L 153.876 234.74 L 153.876 234.74 Z  M 149.601 243.859 C 145.651 240.156 145.651 233.884 149.601 230.181 L 162.934 217.681 C 164.673 216.051 166.965 215.145 169.347 215.145 L 190.625 215.145 C 195.803 215.145 200 219.342 200 224.52 L 200 249.52 C 200 254.698 195.803 258.895 190.625 258.895 L 169.347 258.895 C 166.965 258.895 164.673 257.988 162.934 256.359 L 149.601 243.859 L 149.601 243.859 L 149.601 243.859 L 149.601 243.859 L 149.601 243.859 Z " fill-rule="evenodd" fill="rgb(11,11,11)"/></g><path d=" M 523.391 137.207 C 520.042 136.369 516.649 138.406 515.812 141.754 L 509.562 166.754 C 508.724 170.103 510.761 173.496 514.109 174.334 C 517.458 175.171 520.851 173.134 521.689 169.786 L 527.939 144.786 C 528.776 141.438 526.739 138.044 523.391 137.207 Z " fill-rule="evenodd" fill="rgb(11,11,11)"/><path d=" M 182.859 137.207 C 186.208 136.369 189.601 138.406 190.438 141.754 L 196.688 166.754 C 197.526 170.103 195.489 173.496 192.141 174.334 C 188.792 175.171 185.399 173.134 184.561 169.786 L 178.311 144.786 C 177.474 141.438 179.511 138.044 182.859 137.207 Z " fill-rule="evenodd" fill="rgb(11,11,11)"/><g><path d=" M 331.25 368.27 C 331.25 366.544 332.649 365.145 334.375 365.145 L 371.875 365.145 C 373.601 365.145 375 366.544 375 368.27 C 375 369.996 373.601 371.395 371.875 371.395 L 334.375 371.395 C 332.649 371.395 331.25 369.996 331.25 368.27 Z " fill-rule="evenodd" fill="rgb(68,2,17)"/><path d=" M 325 293.27 C 325 291.544 326.399 290.145 328.125 290.145 L 378.125 290.145 C 379.851 290.145 381.25 291.544 381.25 293.27 C 381.25 294.996 379.851 296.395 378.125 296.395 L 328.125 296.395 C 326.399 296.395 325 294.996 325 293.27 Z " fill-rule="evenodd" fill="rgb(68,2,17)"/><path d=" M 312.5 280.77 C 312.5 279.044 313.899 277.645 315.625 277.645 L 390.625 277.645 C 392.351 277.645 393.75 279.044 393.75 280.77 C 393.75 282.496 392.351 283.895 390.625 283.895 L 315.625 283.895 C 313.899 283.895 312.5 282.496 312.5 280.77 Z " fill-rule="evenodd" fill="rgb(68,2,17)"/></g><g><circle vector-effect="non-scaling-stroke" cx="355.1250112596216" cy="331.99999999999994" r="20.19999999999999" fill="rgb(23,23,23)"/><g><path d=" M 356.225 338.6 L 356.225 325.8 C 356.185 325.44 356.293 325.079 356.525 324.8 C 356.68 324.574 356.974 324.49 357.225 324.6 C 357.825 324.8 358.125 325.3 358.125 326.3 L 358.125 333.2 C 358.775 333.533 359.495 333.704 360.225 333.7 C 360.797 333.703 361.356 333.528 361.825 333.2 C 362.825 332.5 363.325 331.3 363.325 329.5 C 363.446 327.97 363.021 326.446 362.125 325.2 C 361.03 323.966 359.609 323.065 358.025 322.6 C 356.725 322.2 355.525 321.8 354.425 321.5 C 353.325 321.2 352.425 321 351.525 320.8 L 351.525 333 L 351.525 333 L 351.525 335.7 L 351.525 335.7 L 351.525 337.4 L 351.525 337.4 L 351.525 339.9 L 351.525 339.9 L 351.525 341.4 L 356.225 342.9 L 356.225 339.3 L 356.225 339.3 L 356.225 338.6 L 356.225 338.6 L 356.225 338.6 L 356.225 338.6 L 356.225 338.6 Z " fill="rgb(242,242,242)"/><path d=" M 351.125 337.6 L 349.425 338.2 L 348.525 338.6 L 346.925 338.9 L 345.425 338.7 C 345.125 338.5 345.025 338.3 345.225 338.1 C 345.425 337.9 345.425 338 345.525 337.9 C 345.625 337.8 345.825 337.8 345.925 337.7 L 347.025 337.3 L 351.125 335.8 L 351.125 333.1 L 349.425 333.6 L 343.925 335.6 L 342.925 336 C 341.425 336.6 340.725 337.2 340.725 337.8 C 340.825 338.6 341.725 339.3 343.425 339.7 C 344.827 340.071 346.275 340.239 347.725 340.2 C 348.831 340.191 349.935 340.09 351.025 339.9 L 351.025 337.6 L 351.125 337.6 L 351.125 337.6 L 351.125 337.6 L 351.125 337.6 L 351.125 337.6 Z " fill="rgb(242,242,242)"/><path d=" M 366.925 335.3 C 366.114 335.017 365.276 334.816 364.425 334.7 C 363.599 334.567 362.759 334.533 361.925 334.6 C 360.987 334.65 360.052 334.751 359.125 334.9 C 358.236 335.089 357.366 335.356 356.525 335.7 L 356.525 338.5 L 360.425 337.1 L 362.025 336.6 L 363.125 336.3 L 364.525 336.3 C 364.825 336.4 365.125 336.5 365.225 336.7 C 365.325 336.9 365.025 337.1 364.425 337.3 L 363.025 337.8 L 356.525 340.2 L 356.525 342.9 L 360.025 341.6 L 366.425 339.3 L 367.125 338.9 C 368.625 338.4 369.325 337.7 369.325 337 C 369.325 336.3 368.525 335.8 366.925 335.3 Z " fill="rgb(242,242,242)"/></g></g><g><clipPath id="_clipPath_ChgOTsmYEqej4Hrg1cDy0fEDQPz0uIBR"><path d=" M 87.181 108.895 C 87.181 108.895 112.376 94.267 135.473 90.8 C 158.569 87.333 181.569 90 181.569 90 C 181.569 90 178.611 45.3 176.988 38 C 175.366 30.7 169.64 16.7 160.859 10.1 C 152.079 3.5 149.597 0 139.29 0 C 128.983 0 115.049 6.4 106.268 21.4 C 97.488 36.4 87.181 108.895 87.181 108.895 Z " fill="rgb(255,255,255)"/></clipPath><g clip-path="url(#_clipPath_ChgOTsmYEqej4Hrg1cDy0fEDQPz0uIBR)"><g><g><path d=" M 87.181 108.895 C 87.181 108.895 112.376 94.267 135.473 90.8 C 158.569 87.333 181.569 90 181.569 90 C 181.569 90 178.611 45.3 176.988 38 C 175.366 30.7 169.64 16.7 160.859 10.1 C 152.079 3.5 149.597 0 139.29 0 C 128.983 0 115.049 6.4 106.268 21.4 C 97.488 36.4 87.181 108.895 87.181 108.895 Z " fill="rgb(11,11,11)"/></g></g></g><clipPath id="_clipPath_hpJNu9PDNWfwYWIvGxbcu7CLIDUiXYID"><path d=" M 619.069 108.895 C 619.069 108.895 593.874 94.267 570.777 90.8 C 547.681 87.333 524.681 90 524.681 90 C 524.681 90 527.639 45.3 529.262 38 C 530.884 30.7 536.61 16.7 545.391 10.1 C 554.171 3.5 556.653 0 566.96 0 C 577.267 0 591.201 6.4 599.982 21.4 C 608.762 36.4 619.069 108.895 619.069 108.895 Z " fill="rgb(255,255,255)"/></clipPath><g clip-path="url(#_clipPath_hpJNu9PDNWfwYWIvGxbcu7CLIDUiXYID)"><g><g><path d=" M 619.069 108.895 C 619.069 108.895 593.874 94.267 570.777 90.8 C 547.681 87.333 524.681 90 524.681 90 C 524.681 90 527.639 45.3 529.262 38 C 530.884 30.7 536.61 16.7 545.391 10.1 C 554.171 3.5 556.653 0 566.96 0 C 577.267 0 591.201 6.4 599.982 21.4 C 608.762 36.4 619.069 108.895 619.069 108.895 Z " fill="rgb(11,11,11)"/></g></g></g></g></g></g></g></g></g><path d=" M 342.54 131.909 C 330.218 135.609 318 157.873 318 184.57 C 318 214.817 342 237 353 237 C 364 237 388 214.817 388 184.57 C 388 157.873 375.782 135.609 363.46 131.909 C 361.345 131.274 360.43 132.361 361.418 134.336 C 363.5 138.5 367.25 145.965 367.25 157.625 C 367.25 174.389 360.865 188 353 188 C 345.135 188 338.75 174.389 338.75 157.625 C 338.75 145.965 341 141.5 344.582 134.336 C 345.57 132.361 344.655 131.274 342.54 131.909 Z " fill="rgb(255,255,255)"/><clipPath id="_clipPath_1Xsf4b8SgS5HmUFAZB7yvNt9T3JcTpd8"><path d=" M 342.54 131.909 C 330.218 135.609 318 157.873 318 184.57 C 318 214.817 342 237 353 237 C 364 237 388 214.817 388 184.57 C 388 157.873 375.782 135.609 363.46 131.909 C 361.345 131.274 360.43 132.361 361.418 134.336 C 363.5 138.5 367.25 145.965 367.25 157.625 C 367.25 174.389 360.865 188 353 188 C 345.135 188 338.75 174.389 338.75 157.625 C 338.75 145.965 341 141.5 344.582 134.336 C 345.57 132.361 344.655 131.274 342.54 131.909 Z " fill="rgb(255,255,255)"/></clipPath><g clip-path="url(#_clipPath_1Xsf4b8SgS5HmUFAZB7yvNt9T3JcTpd8)"><path d=" M 343.317 216.111 C 339.438 210.88 332.768 208.37 331.736 209.135 C 330.705 209.9 331.17 217.012 335.049 222.242 C 338.929 227.473 343.93 230.345 346.212 228.653 C 348.493 226.961 347.197 221.341 343.317 216.111 Z " fill="rgb(188,14,51)"/><path d=" M 362.683 216.111 C 366.562 210.88 373.232 208.37 374.264 209.135 C 375.295 209.9 374.83 217.012 370.951 222.242 C 367.071 227.473 362.07 230.345 359.788 228.653 C 357.507 226.961 358.803 221.341 362.683 216.111 Z " fill="rgb(188,14,51)"/></g></g></svg>