<?xml version="1.0" encoding="UTF-8" standalone="no"?><!-- Generator: Gravit.io --><svg xmlns="http://www.w3.org/2000/svg" xmlns:xlink="http://www.w3.org/1999/xlink" style="isolation:isolate" viewBox="0 0 179 88" width="179pt" height="88pt"><defs><clipPath id="_clipPath_P8meGKjFzM93KLaL8QRHCZYE8ycFSi9u"><rect width="179" height="88"/></clipPath></defs><g clip-path="url(#_clipPath_P8meGKjFzM93KLaL8QRHCZYE8ycFSi9u)"><g><path d=" M 134.035 65.625 C 134.035 53.544 144.036 43.75 156.374 43.75 C 168.711 43.75 178.713 53.544 178.713 65.625 C 178.713 77.706 168.711 87.5 156.374 87.5 C 144.036 87.5 134.035 77.706 134.035 65.625 L 134.035 65.625 L 134.035 65.625 L 134.035 65.625 Z " fill="rgb(255,255,255)"/><path d=" M 169.607 75.563 L 143.141 75.563 L 156.374 52.642 L 169.607 75.563 L 169.607 75.563 Z " fill="none"/><clipPath id="_clipPath_DtZkcScWCwYtNmEGFeRwlzvjRbYHLmaa"><path d=" M 169.607 75.563 L 143.141 75.563 L 156.374 52.642 L 169.607 75.563 L 169.607 75.563 Z " fill="rgb(255,255,255)"/></clipPath><g clip-path="url(#_clipPath_DtZkcScWCwYtNmEGFeRwlzvjRbYHLmaa)"><g><path d=" M 169.607 75.563 L 143.141 75.563 L 156.374 52.642 L 169.607 75.563 L 169.607 75.563 Z " fill="none"/><clipPath id="_clipPath_C5oj21jwSHaHnfaP2Ir8Qob9IOCqTnB6"><path d=" M 169.607 75.563 L 143.141 75.563 L 156.374 52.642 L 169.607 75.563 L 169.607 75.563 Z " fill="rgb(255,255,255)"/></clipPath><g clip-path="url(#_clipPath_C5oj21jwSHaHnfaP2Ir8Qob9IOCqTnB6)"><mask id="_mask_aDmJpEE8cnQB1cKQNWWSc9hun0siFPvr"><path d=" M 169.607 75.563 L 143.141 75.563 L 156.374 52.642 L 169.607 75.563 L 169.607 75.563 Z " fill="white" stroke="none"/></mask><path d=" M 169.607 75.563 L 143.141 75.563 L 156.374 52.642 L 169.607 75.563 L 169.607 75.563 Z " fill="none"/><path d=" M 169.607 75.563 L 143.141 75.563 L 156.374 52.642 L 169.607 75.563 L 169.607 75.563 Z " fill="none" mask="url(#_mask_aDmJpEE8cnQB1cKQNWWSc9hun0siFPvr)" vector-effect="non-scaling-stroke" stroke-width="6" stroke="rgb(188,14,51)" stroke-opacity="10000" stroke-linejoin="miter" stroke-linecap="square" stroke-miterlimit="3"/></g></g></g></g><g><path d=" M 89.357 65.625 C 89.357 53.544 99.358 43.75 111.696 43.75 C 124.033 43.75 134.035 53.544 134.035 65.625 C 134.035 77.706 124.033 87.5 111.696 87.5 C 99.358 87.5 89.357 77.706 89.357 65.625 L 89.357 65.625 L 89.357 65.625 L 89.357 65.625 Z " fill="rgb(255,255,255)"/><rect x="100.236" y="54.165" width="22.92" height="22.92" transform="matrix(1,0,0,1,0,0)" fill="none"/><clipPath id="_clipPath_xqOPUTZ5MGFhgmnpX3DysBkYgBLtte2L"><rect x="100.236" y="54.165" width="22.92" height="22.92" transform="matrix(1,0,0,1,0,0)" fill="rgb(255,255,255)"/></clipPath><g clip-path="url(#_clipPath_xqOPUTZ5MGFhgmnpX3DysBkYgBLtte2L)"><g><rect x="100.236" y="54.165" width="22.92" height="22.92" transform="matrix(1,0,0,1,0,0)" fill="none"/><clipPath id="_clipPath_ziIqg7S0kuB2LWVdwhfzbaFUnfCPFKNx"><rect x="100.236" y="54.165" width="22.92" height="22.92" transform="matrix(1,0,0,1,0,0)" fill="rgb(255,255,255)"/></clipPath><g clip-path="url(#_clipPath_ziIqg7S0kuB2LWVdwhfzbaFUnfCPFKNx)"><mask id="_mask_t5FoypDPqxBTpeVpU65oybSc8dfSbx2k"><rect x="100.236" y="54.165" width="22.92" height="22.92" fill="white" stroke="none"/></mask><rect x="100.236" y="54.165" width="22.92" height="22.92" transform="matrix(1,0,0,1,0,0)" fill="none"/><rect x="100.236" y="54.165" width="22.92" height="22.92" transform="matrix(1,0,0,1,0,0)" fill="none" mask="url(#_mask_t5FoypDPqxBTpeVpU65oybSc8dfSbx2k)" vector-effect="non-scaling-stroke" stroke-width="6" stroke="rgb(188,14,51)" stroke-opacity="10000" stroke-linejoin="miter" stroke-linecap="square" stroke-miterlimit="2"/></g></g></g></g><g><path d=" M 44.678 65.625 C 44.678 53.544 54.68 43.75 67.017 43.75 C 79.355 43.75 89.357 53.544 89.357 65.625 C 89.357 77.706 79.355 87.5 67.017 87.5 C 54.68 87.5 44.678 77.706 44.678 65.625 L 44.678 65.625 L 44.678 65.625 L 44.678 65.625 Z " fill="rgb(255,255,255)"/><circle vector-effect="non-scaling-stroke" cx="67.01739156971938" cy="65.625" r="12.98260869565" fill="none" stroke-width="3" stroke="rgb(188,14,51)" stroke-opacity="10000" stroke-linejoin="miter" stroke-linecap="square" stroke-miterlimit="3"/></g><g><path d=" M 0 65.625 C 0 53.544 10.002 43.75 22.339 43.75 C 34.677 43.75 44.678 53.544 44.678 65.625 C 44.678 77.706 34.677 87.5 22.339 87.5 C 10.002 87.5 0 77.706 0 65.625 L 0 65.625 L 0 65.625 L 0 65.625 Z " fill="rgb(255,255,255)"/><mask id="_mask_POgGCdJAr7VYRBfohtmmi7vBVZmEh4J1" x="-200%" y="-200%" width="400%" height="400%"><rect x="-200%" y="-200%" width="400%" height="400%" style="fill:white;"/><line x1="33.277" y1="54.688" x2="11.402" y2="76.563" fill="black" stroke="none"/></mask><line x1="33.277" y1="54.688" x2="11.402" y2="76.563" mask="url(#_mask_POgGCdJAr7VYRBfohtmmi7vBVZmEh4J1)" vector-effect="non-scaling-stroke" stroke-width="4" stroke="rgb(188,14,51)" stroke-opacity="10000" stroke-linejoin="miter" stroke-linecap="round" stroke-miterlimit="3"/><mask id="_mask_S8lG7sNvG4MDROD78s1N32fDi7VHRNOy" x="-200%" y="-200%" width="400%" height="400%"><rect x="-200%" y="-200%" width="400%" height="400%" style="fill:white;"/><line x1="11.402" y1="54.688" x2="33.277" y2="76.563" fill="black" stroke="none"/></mask><line x1="11.402" y1="54.688" x2="33.277" y2="76.563" mask="url(#_mask_S8lG7sNvG4MDROD78s1N32fDi7VHRNOy)" vector-effect="non-scaling-stroke" stroke-width="4" stroke="rgb(188,14,51)" stroke-opacity="10000" stroke-linejoin="miter" stroke-linecap="round" stroke-miterlimit="3"/></g><g><path d=" M 134.035 21.875 C 134.035 9.794 144.036 0 156.374 0 C 168.711 0 178.713 9.794 178.713 21.875 C 178.713 33.956 168.711 43.75 156.374 43.75 C 144.036 43.75 134.035 33.956 134.035 21.875 L 134.035 21.875 L 134.035 21.875 L 134.035 21.875 Z " fill="rgb(11,11,11)"/><path d=" M 169.607 31.812 L 143.141 31.813 L 156.374 8.892 L 169.607 31.812 L 169.607 31.812 Z " fill="none"/><clipPath id="_clipPath_xEGg4mVWWX4FbmWrbYuwEFjwFSAXju8z"><path d=" M 169.607 31.812 L 143.141 31.813 L 156.374 8.892 L 169.607 31.812 L 169.607 31.812 Z " fill="rgb(255,255,255)"/></clipPath><g clip-path="url(#_clipPath_xEGg4mVWWX4FbmWrbYuwEFjwFSAXju8z)"><g><path d=" M 169.607 31.812 L 143.141 31.813 L 156.374 8.892 L 169.607 31.812 L 169.607 31.812 Z " fill="none"/><clipPath id="_clipPath_AynoYQdB2j4PluSgwRrwggSbt2dmlhPt"><path d=" M 169.607 31.812 L 143.141 31.813 L 156.374 8.892 L 169.607 31.812 L 169.607 31.812 Z " fill="rgb(255,255,255)"/></clipPath><g clip-path="url(#_clipPath_AynoYQdB2j4PluSgwRrwggSbt2dmlhPt)"><mask id="_mask_mAeYcNfMrvvTTKpzQUsm3l1ppOoWacdS"><path d=" M 169.607 31.812 L 143.141 31.813 L 156.374 8.892 L 169.607 31.812 L 169.607 31.812 Z " fill="white" stroke="none"/></mask><path d=" M 169.607 31.812 L 143.141 31.813 L 156.374 8.892 L 169.607 31.812 L 169.607 31.812 Z " fill="none"/><path d=" M 169.607 31.812 L 143.141 31.813 L 156.374 8.892 L 169.607 31.812 L 169.607 31.812 Z " fill="none" mask="url(#_mask_mAeYcNfMrvvTTKpzQUsm3l1ppOoWacdS)" vector-effect="non-scaling-stroke" stroke-width="6" stroke="rgb(188,14,51)" stroke-opacity="10000" stroke-linejoin="miter" stroke-linecap="square" stroke-miterlimit="3"/></g></g></g></g><g><path d=" M 89.357 21.875 C 89.357 9.794 99.358 0 111.696 0 C 124.033 0 134.035 9.794 134.035 21.875 C 134.035 33.956 124.033 43.75 111.696 43.75 C 99.358 43.75 89.357 33.956 89.357 21.875 L 89.357 21.875 L 89.357 21.875 L 89.357 21.875 Z " fill="rgb(11,11,11)"/><rect x="100.236" y="10.415" width="22.92" height="22.92" transform="matrix(1,0,0,1,0,0)" fill="none"/><clipPath id="_clipPath_P5whytDEiO4hPy8KCSdRAIlKULMMILaw"><rect x="100.236" y="10.415" width="22.92" height="22.92" transform="matrix(1,0,0,1,0,0)" fill="rgb(255,255,255)"/></clipPath><g clip-path="url(#_clipPath_P5whytDEiO4hPy8KCSdRAIlKULMMILaw)"><g><rect x="100.236" y="10.415" width="22.92" height="22.92" transform="matrix(1,0,0,1,0,0)" fill="none"/><clipPath id="_clipPath_lZJjZHs0bDLpKWVfnaUTODUjkrc5S3ll"><rect x="100.236" y="10.415" width="22.92" height="22.92" transform="matrix(1,0,0,1,0,0)" fill="rgb(255,255,255)"/></clipPath><g clip-path="url(#_clipPath_lZJjZHs0bDLpKWVfnaUTODUjkrc5S3ll)"><mask id="_mask_rxJmKLauAuxKtGCfq1qgMoznLDZHV3r9"><rect x="100.236" y="10.415" width="22.92" height="22.92" fill="white" stroke="none"/></mask><rect x="100.236" y="10.415" width="22.92" height="22.92" transform="matrix(1,0,0,1,0,0)" fill="none"/><rect x="100.236" y="10.415" width="22.92" height="22.92" transform="matrix(1,0,0,1,0,0)" fill="none" mask="url(#_mask_rxJmKLauAuxKtGCfq1qgMoznLDZHV3r9)" vector-effect="non-scaling-stroke" stroke-width="6" stroke="rgb(188,14,51)" stroke-opacity="10000" stroke-linejoin="miter" stroke-linecap="square" stroke-miterlimit="2"/></g></g></g></g><g><path d=" M 44.678 21.875 C 44.678 9.794 54.68 0 67.017 0 C 79.355 0 89.357 9.794 89.357 21.875 C 89.357 33.956 79.355 43.75 67.017 43.75 C 54.68 43.75 44.678 33.956 44.678 21.875 L 44.678 21.875 L 44.678 21.875 L 44.678 21.875 Z " fill="rgb(11,11,11)"/><circle vector-effect="non-scaling-stroke" cx="67.01739130435" cy="21.875" r="12.98260869565" fill="none" stroke-width="3" stroke="rgb(188,14,51)" stroke-opacity="10000" stroke-linejoin="miter" stroke-linecap="square" stroke-miterlimit="3"/></g><g><path d=" M 0 21.875 C 0 9.794 10.002 0 22.339 0 C 34.677 0 44.678 9.794 44.678 21.875 C 44.678 33.956 34.677 43.75 22.339 43.75 C 10.002 43.75 0 33.956 0 21.875 L 0 21.875 L 0 21.875 L 0 21.875 Z " fill="rgb(11,11,11)"/><mask id="_mask_iIYq6MnEKuwpFlUpAPNtwdixggUDwOMx" x="-200%" y="-200%" width="400%" height="400%"><rect x="-200%" y="-200%" width="400%" height="400%" style="fill:white;"/><line x1="11.402" y1="10.938" x2="33.277" y2="32.813" fill="black" stroke="none"/></mask><line x1="11.402" y1="10.938" x2="33.277" y2="32.813" mask="url(#_mask_iIYq6MnEKuwpFlUpAPNtwdixggUDwOMx)" vector-effect="non-scaling-stroke" stroke-width="4" stroke="rgb(188,14,51)" stroke-opacity="10000" stroke-linejoin="miter" stroke-linecap="round" stroke-miterlimit="3"/><mask id="_mask_b9NAb99QrQNCmWR6hBjXrvzbvjg4vf0M" x="-200%" y="-200%" width="400%" height="400%"><rect x="-200%" y="-200%" width="400%" height="400%" style="fill:white;"/><line x1="33.277" y1="10.938" x2="11.402" y2="32.813" fill="black" stroke="none"/></mask><line x1="33.277" y1="10.938" x2="11.402" y2="32.813" mask="url(#_mask_b9NAb99QrQNCmWR6hBjXrvzbvjg4vf0M)" vector-effect="non-scaling-stroke" stroke-width="4" stroke="rgb(188,14,51)" stroke-opacity="10000" stroke-linejoin="miter" stroke-linecap="round" stroke-miterlimit="3"/></g></g></svg>