<?xml version="1.0" encoding="UTF-8" standalone="no"?><!-- Generator: Gravit.io --><svg xmlns="http://www.w3.org/2000/svg" xmlns:xlink="http://www.w3.org/1999/xlink" style="isolation:isolate" viewBox="0 0 20 43" width="20pt" height="43pt"><defs><clipPath id="_clipPath_RBxYatpEN0tFuznBXjHV7a6mr9C0RKCG"><rect width="20" height="43"/></clipPath></defs><g clip-path="url(#_clipPath_RBxYatpEN0tFuznBXjHV7a6mr9C0RKCG)"><clipPath id="_clipPath_5mJ5xHQARX4dDYVA9vOswWwoUmnsfilR"><rect x="0" y="0" width="20" height="43" transform="matrix(1,0,0,1,0,0)" fill="rgb(255,255,255)"/></clipPath><g clip-path="url(#_clipPath_5mJ5xHQARX4dDYVA9vOswWwoUmnsfilR)"><g><clipPath id="_clipPath_IRPs8lvvj1Q0YP4IHI1k68vdUW5msOpU"><rect x="0" y="0" width="20" height="43" transform="matrix(1,0,0,1,0,0)" fill="rgb(255,255,255)"/></clipPath><g clip-path="url(#_clipPath_IRPs8lvvj1Q0YP4IHI1k68vdUW5msOpU)"><g><g><rect x="0" y="0" width="20" height="43" transform="matrix(1,0,0,1,0,0)" fill="none"/><path d=" M 20 33 C 20 35.65 18.95 38.2 17.07 40.07 C 15.2 41.95 12.65 43 10 43 C 7.35 43 4.8 41.95 2.93 40.07 C 1.05 38.2 0 35.65 0 33 L 0 10 C 0 7.35 1.05 4.8 2.93 2.93 C 4.8 1.05 7.35 0 10 0 C 12.65 0 15.2 1.05 17.07 2.93 C 18.95 4.8 20 7.35 20 10 L 20 33 L 20 33 L 20 33 Z " fill="rgb(255,255,255)"/></g></g></g></g></g></g></svg>