<?xml version="1.0" encoding="UTF-8" standalone="no"?><!-- Generator: Gravit.io --><svg xmlns="http://www.w3.org/2000/svg" xmlns:xlink="http://www.w3.org/1999/xlink" style="isolation:isolate" viewBox="0 0 281 163" width="281pt" height="163pt"><defs><clipPath id="_clipPath_qix7Gn9vkGleROlHEurmYVhqFzBrSw9N"><rect width="281" height="163"/></clipPath></defs><g clip-path="url(#_clipPath_qix7Gn9vkGleROlHEurmYVhqFzBrSw9N)"><linearGradient id="_lgradient_4" x1="0" y1="0.5" x2="1" y2="0.5" gradientTransform="matrix(275.005,0,0,156.49,5.996,6.26)" gradientUnits="userSpaceOnUse"><stop offset="0%" stop-opacity="0" style="stop-color:rgb(255,255,255)"/><stop offset="36.25%" stop-opacity="1" style="stop-color:rgb(255,255,255)"/><stop offset="61.77287492379995%" stop-opacity="1" style="stop-color:rgb(255,255,255)"/><stop offset="100%" stop-opacity="0" style="stop-color:rgb(255,255,255)"/></linearGradient><path d=" M 281.002 35.641 C 280.975 38.51 280.593 41.245 280.254 43.642 C 277.217 65.11 272.968 90.855 268.121 120.219 L 268.107 120.306 C 265.576 135.643 259.182 146.332 250.762 153.168 C 242.374 159.978 232.236 162.75 222.553 162.75 L 222.501 162.75 C 232.193 162.75 242.34 159.973 250.736 153.153 C 259.163 146.307 265.562 135.601 268.096 120.241 L 268.11 120.153 C 272.961 90.744 277.213 64.96 280.253 43.459 C 280.585 41.113 280.957 38.443 281.002 35.641 Z  M 146.589 6.26 C 116.273 6.26 61.9 9.331 34.921 15.389 C 29.672 16.568 25.012 17.683 20.99 19.111 C 16.974 20.536 13.798 22.207 11.428 24.381 C 6.958 28.484 4.535 35.195 6.948 48.602 C 7.716 52.874 8.476 57.099 9.223 61.256 C 14.382 89.957 18.963 115.439 22.121 131.396 C 23.513 138.425 26.954 144.623 32.731 149.088 C 38.519 153.56 46.91 156.49 58.529 156.49 L 222.501 156.49 C 231.029 156.49 239.709 154.051 246.799 148.291 C 253.858 142.556 259.604 133.317 261.929 119.221 L 261.934 119.193 C 266.792 89.735 271.035 64.01 274.064 42.581 C 274.864 36.926 275.402 31.779 273.072 27.269 C 270.831 22.931 265.436 18.366 252.183 15.389 C 219.789 8.115 178.227 6.26 146.589 6.26 L 146.589 6.26 Z " fill-rule="evenodd" fill="url(#_lgradient_4)"/><path d=" M 130.04 32.05 C 117.718 35.75 105.5 58.014 105.5 84.711 C 105.5 114.958 129.5 137.141 140.5 137.141 C 151.5 137.141 175.5 114.958 175.5 84.711 C 175.5 58.014 163.282 35.75 150.96 32.05 C 148.845 31.415 147.93 32.502 148.918 34.477 C 151 38.641 154.75 46.106 154.75 57.766 C 154.75 74.53 148.365 88.141 140.5 88.141 C 132.635 88.141 126.25 74.53 126.25 57.766 C 126.25 46.106 128.5 41.641 132.082 34.477 C 133.07 32.502 132.155 31.415 130.04 32.05 Z " fill="rgb(188,14,51)"/><clipPath id="_clipPath_bcfGYWAseUJrT21sD9TmJs9adKqGtM0p"><path d=" M 130.04 32.05 C 117.718 35.75 105.5 58.014 105.5 84.711 C 105.5 114.958 129.5 137.141 140.5 137.141 C 151.5 137.141 175.5 114.958 175.5 84.711 C 175.5 58.014 163.282 35.75 150.96 32.05 C 148.845 31.415 147.93 32.502 148.918 34.477 C 151 38.641 154.75 46.106 154.75 57.766 C 154.75 74.53 148.365 88.141 140.5 88.141 C 132.635 88.141 126.25 74.53 126.25 57.766 C 126.25 46.106 128.5 41.641 132.082 34.477 C 133.07 32.502 132.155 31.415 130.04 32.05 Z " fill="rgb(188,14,51)"/></clipPath><g clip-path="url(#_clipPath_bcfGYWAseUJrT21sD9TmJs9adKqGtM0p)"><path d=" M 130.817 116.252 C 126.938 111.021 120.268 108.511 119.236 109.276 C 118.205 110.041 118.67 117.153 122.549 122.383 C 126.429 127.614 131.43 130.486 133.712 128.794 C 135.993 127.102 134.697 121.482 130.817 116.252 Z " fill="rgb(255,255,255)"/><path d=" M 150.183 116.252 C 154.062 111.021 160.732 108.511 161.764 109.276 C 162.795 110.041 162.33 117.153 158.451 122.383 C 154.571 127.614 149.57 130.486 147.288 128.794 C 145.007 127.102 146.303 121.482 150.183 116.252 Z " fill="rgb(255,255,255)"/></g></g></svg>