<?xml version="1.0" encoding="UTF-8" standalone="no"?><!-- Generator: Gravit.io --><svg xmlns="http://www.w3.org/2000/svg" xmlns:xlink="http://www.w3.org/1999/xlink" style="isolation:isolate" viewBox="0 0 179 88" width="179pt" height="88pt"><defs><clipPath id="_clipPath_qpPd7NJY5sqLx4EA4dqo15AcoeAIu4eQ"><rect width="179" height="88"/></clipPath></defs><g clip-path="url(#_clipPath_qpPd7NJY5sqLx4EA4dqo15AcoeAIu4eQ)"><clipPath id="_clipPath_2t6khHRtK1a3yXTrdXC5AbVex9ugbFJV"><rect x="0" y="0" width="179" height="88" transform="matrix(1,0,0,1,0,0)" fill="rgb(255,255,255)"/></clipPath><g clip-path="url(#_clipPath_2t6khHRtK1a3yXTrdXC5AbVex9ugbFJV)"><g><rect x="0" y="0" width="179" height="88" transform="matrix(1,0,0,1,0,0)" fill="none"/><g><path d=" M 0 21.875 C 0 9.794 10.002 0 22.339 0 C 34.677 0 44.678 9.794 44.678 21.875 C 44.678 33.956 34.677 43.75 22.339 43.75 C 10.002 43.75 0 33.956 0 21.875 L 0 21.875 L 0 21.875 Z " fill="rgb(0,0,0)"/><mask id="_mask_0O3gsRoMcjOpnKx4u42ZIpyudLHu2VMK" x="-200%" y="-200%" width="400%" height="400%"><rect x="-200%" y="-200%" width="400%" height="400%" style="fill:white;"/><line x1="11.402" y1="10.938" x2="33.277" y2="32.813" fill="black" stroke="none"/></mask><line x1="11.402" y1="10.938" x2="33.277" y2="32.813" mask="url(#_mask_0O3gsRoMcjOpnKx4u42ZIpyudLHu2VMK)" vector-effect="non-scaling-stroke" stroke-width="4" stroke="rgb(255,0,119)" stroke-linejoin="miter" stroke-linecap="round" stroke-miterlimit="3"/><mask id="_mask_dEHKq9C8YWxLQBjtt6AFpbfCzATnrXS7" x="-200%" y="-200%" width="400%" height="400%"><rect x="-200%" y="-200%" width="400%" height="400%" style="fill:white;"/><line x1="33.277" y1="10.938" x2="11.402" y2="32.813" fill="black" stroke="none"/></mask><line x1="33.277" y1="10.938" x2="11.402" y2="32.813" mask="url(#_mask_dEHKq9C8YWxLQBjtt6AFpbfCzATnrXS7)" vector-effect="non-scaling-stroke" stroke-width="4" stroke="rgb(255,0,119)" stroke-linejoin="miter" stroke-linecap="round" stroke-miterlimit="3"/></g><g><path d=" M 44.678 21.875 C 44.678 9.794 54.68 0 67.017 0 C 79.355 0 89.357 9.794 89.357 21.875 C 89.357 33.956 79.355 43.75 67.017 43.75 C 54.68 43.75 44.678 33.956 44.678 21.875 L 44.678 21.875 L 44.678 21.875 Z " fill="rgb(0,0,0)"/><circle vector-effect="non-scaling-stroke" cx="67.01739130435" cy="21.875" r="12.98260869565" fill="none" stroke-width="3" stroke="rgb(255,0,119)" stroke-linejoin="miter" stroke-linecap="square" stroke-miterlimit="3"/></g><g><path d=" M 89.357 21.875 C 89.357 9.794 99.358 0 111.696 0 C 124.033 0 134.035 9.794 134.035 21.875 C 134.035 33.956 124.033 43.75 111.696 43.75 C 99.358 43.75 89.357 33.956 89.357 21.875 L 89.357 21.875 L 89.357 21.875 Z " fill="rgb(0,0,0)"/><rect x="100.236" y="10.415" width="22.92" height="22.92" transform="matrix(1,0,0,1,0,0)" fill="none"/><clipPath id="_clipPath_VRFerN6Slrbj5yuFZRxqUV8v3v2FwFY1"><rect x="100.236" y="10.415" width="22.92" height="22.92" transform="matrix(1,0,0,1,0,0)" fill="rgb(255,255,255)"/></clipPath><g clip-path="url(#_clipPath_VRFerN6Slrbj5yuFZRxqUV8v3v2FwFY1)"><mask id="_mask_AgPuJ6tuH6owVky6qfRz5Ldnvl0hQ1An"><rect x="100.236" y="10.415" width="22.92" height="22.92" fill="white" stroke="none"/></mask><rect x="100.236" y="10.415" width="22.92" height="22.92" transform="matrix(1,0,0,1,0,0)" fill="none"/><rect x="100.236" y="10.415" width="22.92" height="22.92" transform="matrix(1,0,0,1,0,0)" fill="none" mask="url(#_mask_AgPuJ6tuH6owVky6qfRz5Ldnvl0hQ1An)" vector-effect="non-scaling-stroke" stroke-width="6" stroke="rgb(255,0,119)" stroke-linejoin="miter" stroke-linecap="square" stroke-miterlimit="2"/></g></g><g><path d=" M 134.035 21.875 C 134.035 9.794 144.036 0 156.374 0 C 168.711 0 178.713 9.794 178.713 21.875 C 178.713 33.956 168.711 43.75 156.374 43.75 C 144.036 43.75 134.035 33.956 134.035 21.875 L 134.035 21.875 L 134.035 21.875 Z " fill="rgb(0,0,0)"/><path d=" M 169.607 31.812 L 143.141 31.813 L 156.374 8.892 L 169.607 31.812 Z " fill="none"/><clipPath id="_clipPath_VdRBo6OZmWTL3pimex0lXddZWQG3xO8S"><path d=" M 169.607 31.812 L 143.141 31.813 L 156.374 8.892 L 169.607 31.812 Z " fill="rgb(255,255,255)"/></clipPath><g clip-path="url(#_clipPath_VdRBo6OZmWTL3pimex0lXddZWQG3xO8S)"><mask id="_mask_6y1UsoqmdQlZkOFVkOVrj4Wm1rFZyXRC"><path d=" M 169.607 31.812 L 143.141 31.813 L 156.374 8.892 L 169.607 31.812 Z " fill="white" stroke="none"/></mask><path d=" M 169.607 31.812 L 143.141 31.813 L 156.374 8.892 L 169.607 31.812 Z " fill="none"/><path d=" M 169.607 31.812 L 143.141 31.813 L 156.374 8.892 L 169.607 31.812 Z " fill="none" mask="url(#_mask_6y1UsoqmdQlZkOFVkOVrj4Wm1rFZyXRC)" vector-effect="non-scaling-stroke" stroke-width="6" stroke="rgb(255,0,119)" stroke-linejoin="miter" stroke-linecap="square" stroke-miterlimit="3"/></g></g><g><path d=" M 0 65.625 C 0 53.544 10.002 43.75 22.339 43.75 C 34.677 43.75 44.678 53.544 44.678 65.625 C 44.678 77.706 34.677 87.5 22.339 87.5 C 10.002 87.5 0 77.706 0 65.625 L 0 65.625 L 0 65.625 Z " fill="rgb(255,255,255)"/><mask id="_mask_ZVbFZiK4wviQcf9hmAm2pYO5iVdvQXyD" x="-200%" y="-200%" width="400%" height="400%"><rect x="-200%" y="-200%" width="400%" height="400%" style="fill:white;"/><line x1="11.402" y1="54.688" x2="33.277" y2="76.563" fill="black" stroke="none"/></mask><line x1="11.402" y1="54.688" x2="33.277" y2="76.563" mask="url(#_mask_ZVbFZiK4wviQcf9hmAm2pYO5iVdvQXyD)" vector-effect="non-scaling-stroke" stroke-width="4" stroke="rgb(0,0,0)" stroke-linejoin="miter" stroke-linecap="round" stroke-miterlimit="3"/><mask id="_mask_UnA3prhdVHPyUmKo8AHdY4mCXfNMVNVL" x="-200%" y="-200%" width="400%" height="400%"><rect x="-200%" y="-200%" width="400%" height="400%" style="fill:white;"/><line x1="33.277" y1="54.688" x2="11.402" y2="76.563" fill="black" stroke="none"/></mask><line x1="33.277" y1="54.688" x2="11.402" y2="76.563" mask="url(#_mask_UnA3prhdVHPyUmKo8AHdY4mCXfNMVNVL)" vector-effect="non-scaling-stroke" stroke-width="4" stroke="rgb(0,0,0)" stroke-linejoin="miter" stroke-linecap="round" stroke-miterlimit="3"/></g><g><path d=" M 44.678 65.625 C 44.678 53.544 54.68 43.75 67.017 43.75 C 79.355 43.75 89.357 53.544 89.357 65.625 C 89.357 77.706 79.355 87.5 67.017 87.5 C 54.68 87.5 44.678 77.706 44.678 65.625 L 44.678 65.625 L 44.678 65.625 Z " fill="rgb(255,255,255)"/><circle vector-effect="non-scaling-stroke" cx="67.01739156971938" cy="65.625" r="12.98260869565" fill="none" stroke-width="3" stroke="rgb(0,0,0)" stroke-linejoin="miter" stroke-linecap="square" stroke-miterlimit="3"/></g><g><path d=" M 89.357 65.625 C 89.357 53.544 99.358 43.75 111.696 43.75 C 124.033 43.75 134.035 53.544 134.035 65.625 C 134.035 77.706 124.033 87.5 111.696 87.5 C 99.358 87.5 89.357 77.706 89.357 65.625 L 89.357 65.625 L 89.357 65.625 Z " fill="rgb(255,255,255)"/><rect x="100.236" y="54.165" width="22.92" height="22.92" transform="matrix(1,0,0,1,0,0)" fill="none"/><rect x="100.236" y="54.165" width="22.92" height="22.92" transform="matrix(1,0,0,1,0,0)" fill="none" vector-effect="non-scaling-stroke" stroke-width="1" stroke="rgb(0,0,0)" stroke-linejoin="miter" stroke-linecap="butt" stroke-miterlimit="2"/><clipPath id="_clipPath_RaPgYWQ9I83ZhRlIJYy4cB7RhCgUX2Io"><rect x="100.236" y="54.165" width="22.92" height="22.92" transform="matrix(1,0,0,1,0,0)" fill="none" vector-effect="non-scaling-stroke" stroke-width="1" stroke="rgb(0,0,0)" stroke-linejoin="miter" stroke-linecap="butt" stroke-miterlimit="2"/></clipPath><g clip-path="url(#_clipPath_RaPgYWQ9I83ZhRlIJYy4cB7RhCgUX2Io)"><mask id="_mask_MSqil4sIb1FhAIHX4lWMhK1obWU7JQet"><rect x="100.236" y="54.165" width="22.92" height="22.92" fill="white" stroke="none"/></mask><rect x="100.236" y="54.165" width="22.92" height="22.92" transform="matrix(1,0,0,1,0,0)" fill="none"/><rect x="100.236" y="54.165" width="22.92" height="22.92" transform="matrix(1,0,0,1,0,0)" fill="none" mask="url(#_mask_MSqil4sIb1FhAIHX4lWMhK1obWU7JQet)" vector-effect="non-scaling-stroke" stroke-width="6" stroke="rgb(0,0,0)" stroke-linejoin="miter" stroke-linecap="square" stroke-miterlimit="2"/></g><rect x="100.236" y="54.165" width="22.92" height="22.92" transform="matrix(1,0,0,1,0,0)" fill="transparent" vector-effect="non-scaling-stroke" stroke-width="1" stroke="rgb(0,0,0)" stroke-linejoin="miter" stroke-linecap="butt" stroke-miterlimit="2"/></g><g><path d=" M 134.035 65.625 C 134.035 53.544 144.036 43.75 156.374 43.75 C 168.711 43.75 178.713 53.544 178.713 65.625 C 178.713 77.706 168.711 87.5 156.374 87.5 C 144.036 87.5 134.035 77.706 134.035 65.625 L 134.035 65.625 L 134.035 65.625 Z " fill="rgb(255,255,255)"/><path d=" M 169.607 75.563 L 143.141 75.563 L 156.374 52.642 L 169.607 75.563 Z " fill="none"/><clipPath id="_clipPath_3Cv0LUwp5qFBvPx7WJvR26XOxDzh3uVW"><path d=" M 169.607 75.563 L 143.141 75.563 L 156.374 52.642 L 169.607 75.563 Z " fill="rgb(255,255,255)"/></clipPath><g clip-path="url(#_clipPath_3Cv0LUwp5qFBvPx7WJvR26XOxDzh3uVW)"><mask id="_mask_brLHfrvFAVwYgzoYeE7d7ZAEWyAzcmyP"><path d=" M 169.607 75.563 L 143.141 75.563 L 156.374 52.642 L 169.607 75.563 Z " fill="white" stroke="none"/></mask><path d=" M 169.607 75.563 L 143.141 75.563 L 156.374 52.642 L 169.607 75.563 Z " fill="none"/><path d=" M 169.607 75.563 L 143.141 75.563 L 156.374 52.642 L 169.607 75.563 Z " fill="none" mask="url(#_mask_brLHfrvFAVwYgzoYeE7d7ZAEWyAzcmyP)" vector-effect="non-scaling-stroke" stroke-width="6" stroke="rgb(0,0,0)" stroke-linejoin="miter" stroke-linecap="square" stroke-miterlimit="3"/></g></g></g></g></g></svg>