<?xml version="1.0" encoding="UTF-8" standalone="no"?><!-- Generator: Gravit.io --><svg xmlns="http://www.w3.org/2000/svg" xmlns:xlink="http://www.w3.org/1999/xlink" style="isolation:isolate" viewBox="0 0 225 75" width="225pt" height="75pt"><defs><clipPath id="_clipPath_mcuTj4fgp1838rUWSYiF5NGtusflhh0c"><rect width="225" height="75"/></clipPath></defs><g clip-path="url(#_clipPath_mcuTj4fgp1838rUWSYiF5NGtusflhh0c)"><clipPath id="_clipPath_SXqdS8pS2LqzG8ITDqbggBExgqbyEyXX"><rect x="0" y="0" width="225" height="75" transform="matrix(1,0,0,1,0,0)" fill="rgb(255,255,255)"/></clipPath><g clip-path="url(#_clipPath_SXqdS8pS2LqzG8ITDqbggBExgqbyEyXX)"><g><clipPath id="_clipPath_HNQMBecFAGfSi0sLHCNwYAFWbqHVS9Zf"><rect x="0" y="0" width="225" height="75" transform="matrix(1,0,0,1,0,0)" fill="rgb(255,255,255)"/></clipPath><g clip-path="url(#_clipPath_HNQMBecFAGfSi0sLHCNwYAFWbqHVS9Zf)"><g><g><rect x="0" y="0" width="225" height="75" transform="matrix(1,0,0,1,0,0)" fill="none"/><circle vector-effect="non-scaling-stroke" cx="37.5" cy="37.499988079071045" r="37.500011920928955" fill="rgb(255,0,119)"/><circle vector-effect="non-scaling-stroke" cx="112.50002384185791" cy="37.499988079071045" r="37.500011920928955" fill="rgb(255,255,255)"/><rect x="92.5" y="11.559" width="42" height="47.883" transform="matrix(1,0,0,1,0,0)" fill="none"/><circle vector-effect="non-scaling-stroke" cx="187.50004768371582" cy="37.499988079071045" r="37.500011920928955" fill="rgb(255,255,255)"/><rect x="166" y="11.559" width="47" height="47.883" transform="matrix(1,0,0,1,0,0)" fill="none"/></g></g></g></g></g></g></svg>