<?xml version="1.0" encoding="UTF-8" standalone="no"?><!-- Generator: Gravit.io --><svg xmlns="http://www.w3.org/2000/svg" xmlns:xlink="http://www.w3.org/1999/xlink" style="isolation:isolate" viewBox="0 0 225 75" width="225pt" height="75pt"><defs><clipPath id="_clipPath_WOB05yvw7sItP9FuMtQGKIX8sJBpUUJw"><rect width="225" height="75"/></clipPath></defs><g clip-path="url(#_clipPath_WOB05yvw7sItP9FuMtQGKIX8sJBpUUJw)"><clipPath id="_clipPath_i2OkaYtHOaqPsD1AXJ0hfQg5QEzqNITU"><rect x="0" y="0" width="225" height="75" transform="matrix(1,0,0,1,0,0)" fill="rgb(255,255,255)"/></clipPath><g clip-path="url(#_clipPath_i2OkaYtHOaqPsD1AXJ0hfQg5QEzqNITU)"><g><clipPath id="_clipPath_6k2n8JKlZqvVUScztkeVLumoCRTRYREW"><rect x="0" y="0" width="225" height="75" transform="matrix(1,0,0,1,0,0)" fill="rgb(255,255,255)"/></clipPath><g clip-path="url(#_clipPath_6k2n8JKlZqvVUScztkeVLumoCRTRYREW)"><g><g><clipPath id="_clipPath_HpN0DKTeG9smiWNTc2f2VuQrdZ7hnJie"><rect x="0" y="0" width="225" height="75" transform="matrix(1,0,0,1,0,0)" fill="rgb(255,255,255)"/></clipPath><g clip-path="url(#_clipPath_HpN0DKTeG9smiWNTc2f2VuQrdZ7hnJie)"><g><g><g><rect x="0" y="0" width="225" height="75" transform="matrix(1,0,0,1,0,0)" fill="none"/><radialGradient id="_rgradient_0" fx="0.5533333163791286" fy="0.46000017166132234" cx="0.5" cy="0.5" r="0.5" gradientTransform="matrix(75,0,0,75,-14,-9.5)" gradientUnits="userSpaceOnUse"><stop offset="0%" stop-opacity="1" style="stop-color:rgb(28,35,63)"/><stop offset="100%" stop-opacity="1" style="stop-color:rgb(17,18,36)"/></radialGradient><mask id="_mask_evsMIqoycy11OLHMhfjFcsiXtNcQRLPb"><circle vector-effect="non-scaling-stroke" cx="37.5" cy="37.499988079071045" r="37.500011920928955" fill="white" stroke="none"/></mask><circle vector-effect="non-scaling-stroke" cx="37.5" cy="37.499988079071045" r="37.500011920928955" fill="url(#_rgradient_0)"/><circle vector-effect="non-scaling-stroke" cx="37.5" cy="37.499988079071045" r="37.500011920928955" fill="url(#_rgradient_0)" mask="url(#_mask_evsMIqoycy11OLHMhfjFcsiXtNcQRLPb)" stroke-width="16" stroke="rgb(23,28,51)" stroke-linejoin="miter" stroke-linecap="butt" stroke-miterlimit="4"/><circle vector-effect="non-scaling-stroke" cx="112.50002384185791" cy="37.499988079071045" r="37.500011920928955" fill="rgb(255,255,255)"/><rect x="92.5" y="11.559" width="42" height="47.883" transform="matrix(1,0,0,1,0,0)" fill="none"/><circle vector-effect="non-scaling-stroke" cx="187.50004768371582" cy="37.499988079071045" r="37.500011920928955" fill="rgb(255,255,255)"/><rect x="166" y="11.559" width="47" height="47.883" transform="matrix(1,0,0,1,0,0)" fill="none"/></g></g></g></g></g></g></g></g></g></g></svg>