<?xml version="1.0" encoding="UTF-8" standalone="no"?><!-- Generator: Gravit.io --><svg xmlns="http://www.w3.org/2000/svg" xmlns:xlink="http://www.w3.org/1999/xlink" style="isolation:isolate" viewBox="0 0 189 109" width="189pt" height="109pt"><defs><clipPath id="_clipPath_0vtijkp9UFXOyrbKiFUGPp2WJZmYGgbU"><rect width="189" height="109"/></clipPath></defs><g clip-path="url(#_clipPath_0vtijkp9UFXOyrbKiFUGPp2WJZmYGgbU)"><clipPath id="_clipPath_6kr5sFxqfhU6khTGG9uTGOiXFWeL68p6"><rect x="0" y="0" width="189" height="109" transform="matrix(1,0,0,1,0,0)" fill="rgb(255,255,255)"/></clipPath><g clip-path="url(#_clipPath_6kr5sFxqfhU6khTGG9uTGOiXFWeL68p6)"><g><rect x="0" y="0" width="189" height="109" transform="matrix(1,0,0,1,0,0)" fill="none"/><path d=" M 0.111 109 C 0.111 109 25.306 94.372 48.403 90.905 C 71.5 87.438 94.5 90.105 94.5 90.105 C 94.5 90.105 91.541 45.405 89.919 38.105 C 88.296 30.805 82.57 16.805 73.79 10.205 C 65.009 3.605 62.528 0.105 52.221 0.105 C 41.913 0.105 27.979 6.505 19.199 21.505 C 10.419 36.505 0.111 109 0.111 109 Z " fill="rgb(255,255,255)"/><path d=" M 188.889 109 C 188.889 109 163.694 94.372 140.597 90.905 C 117.5 87.438 94.5 90.105 94.5 90.105 C 94.5 90.105 97.459 45.405 99.081 38.105 C 100.704 30.805 106.43 16.805 115.21 10.205 C 123.991 3.605 126.472 0.105 136.779 0.105 C 147.087 0.105 161.021 6.505 169.801 21.505 C 178.581 36.505 188.889 109 188.889 109 Z " fill="rgb(255,255,255)"/><rect x="29.721" y="42.222" width="45" height="47.883" transform="matrix(1,0,0,1,0,0)" fill="none"/><rect x="111.779" y="42.222" width="50" height="47.883" transform="matrix(1,0,0,1,0,0)" fill="none"/></g></g></g></svg>